<?xml version="1.0" standalone="no"?>
<!DOCTYPE svg PUBLIC "-//W3C//DTD SVG 20010904//EN"
 "http://www.w3.org/TR/2001/REC-SVG-20010904/DTD/svg10.dtd">
<svg version="1.0" xmlns="http://www.w3.org/2000/svg"
 width="auto" height="36px" viewBox="0 0 840.000000 460.000000"
 preserveAspectRatio="xMidYMid meet">

<g transform="translate(0.000000,460.000000) scale(0.100000,-0.100000)"
fill="#fff" stroke="none">
<path d="M2825 4284 c-333 -62 -610 -212 -837 -453 -197 -210 -333 -476 -385
-754 -27 -140 -24 -429 5 -563 32 -150 66 -246 132 -379 74 -149 164 -272 290
-395 123 -122 244 -207 395 -280 231 -112 425 -154 691 -148 138 2 164 1 168
-12 25 -84 401 -1132 414 -1154 26 -44 86 -71 158 -71 50 0 73 6 130 35 73 37
107 75 124 140 9 33 4 54 -40 181 -27 79 -117 340 -199 579 -83 239 -149 435
-148 435 219 117 296 172 432 309 349 351 496 878 385 1378 -28 124 -54 195
-120 333 -75 156 -161 276 -286 400 -204 204 -427 328 -719 402 -87 22 -126
26 -305 29 -153 2 -225 0 -285 -12z m373 -374 c270 -30 512 -143 698 -327 349
-346 432 -870 206 -1307 -284 -551 -965 -773 -1523 -497 -325 161 -547 452
-614 806 -21 108 -21 309 0 410 70 339 269 612 571 781 85 48 232 99 335 118
146 27 201 29 327 16z"/>
<path d="M3459 3583 c-109 -280 -118 -323 -64 -323 21 0 28 12 63 103 22 56
45 119 53 140 l13 38 73 -7 c98 -9 123 -2 123 35 0 17 -6 31 -16 35 -9 3 -65
6 -125 6 l-109 0 -11 -27z"/>
<path d="M2848 3481 c-117 -38 -227 -133 -276 -239 -24 -50 -27 -69 -26 -152
0 -123 17 -164 71 -179 76 -21 166 -5 290 53 218 103 373 252 373 360 0 29 -8
41 -47 75 -78 68 -144 94 -243 98 -63 2 -100 -2 -142 -16z m258 -92 c110 -52
117 -80 38 -168 -105 -117 -344 -240 -467 -241 -32 0 -39 4 -48 28 -6 15 -9
61 -7 103 4 59 10 86 30 120 56 95 149 162 258 184 73 16 123 9 196 -26z"/>
<path d="M3563 3325 c-62 -41 -113 -81 -113 -88 0 -21 16 -38 36 -39 24 -2
222 126 231 148 7 20 -8 48 -28 52 -8 1 -65 -32 -126 -73z"/>
<path d="M3648 3227 c-71 -55 -87 -79 -68 -102 19 -23 39 -18 96 25 29 22 56
40 59 40 3 0 59 -45 123 -100 119 -103 143 -114 166 -77 9 16 3 26 -45 70
-113 106 -227 197 -245 196 -11 0 -49 -24 -86 -52z"/>
<path d="M3240 3161 c-159 -162 -340 -259 -572 -306 -42 -8 -47 -29 -37 -145
36 -419 236 -655 519 -609 230 37 510 217 610 392 126 220 -4 488 -346 712
-37 25 -73 45 -79 44 -5 0 -48 -40 -95 -88z m240 -98 c206 -163 288 -341 230
-498 -42 -111 -230 -269 -408 -341 -146 -59 -252 -67 -343 -26 -128 57 -223
246 -248 492 -5 47 -8 86 -6 88 2 2 28 10 59 18 30 8 99 32 153 54 53 22 100
40 104 40 4 0 73 -115 154 -255 82 -140 155 -257 163 -260 9 -3 24 3 35 13 23
24 31 6 -144 307 -70 121 -129 225 -131 231 -2 6 38 43 87 81 50 38 106 88
125 110 35 39 35 40 63 24 16 -9 64 -44 107 -78z"/>
<path d="M2234 2878 c-34 -44 -97 -185 -91 -202 9 -23 35 -31 53 -15 9 7 29
40 46 73 17 34 34 66 39 72 6 8 48 4 146 -13 135 -23 138 -23 156 -4 15 14 17
23 9 38 -9 16 -36 24 -149 42 -76 13 -150 25 -164 28 -19 4 -31 -1 -45 -19z"/>
<path d="M2435 2672 c-85 -44 -111 -62 -113 -79 -2 -16 4 -26 21 -34 22 -10
38 -4 137 47 116 61 141 84 119 110 -19 24 -49 16 -164 -44z"/>
<path d="M2490 2552 c-58 -25 -86 -43 -88 -56 -6 -27 58 -342 73 -362 13 -19
50 -12 59 11 3 8 -8 83 -25 166 -17 83 -29 152 -27 154 2 2 30 14 62 27 67 27
87 48 70 76 -17 26 -32 24 -124 -16z"/>
<path d="M5266 4092 c-3 -5 -62 -168 -131 -363 -315 -884 -398 -1117 -574
-1609 -103 -289 -186 -528 -184 -532 2 -5 125 -8 273 -8 l268 0 42 133 c23 72
60 189 82 260 l41 127 487 0 487 0 10 -22 c5 -13 45 -130 87 -260 l77 -238
270 0 c163 0 269 4 269 10 0 5 -16 53 -36 107 -19 54 -219 609 -444 1233 -225
624 -412 1143 -415 1153 -7 16 -31 17 -305 17 -165 0 -301 -4 -304 -8z m480
-1034 l170 -523 -173 -3 c-95 -1 -251 -1 -346 0 l-174 3 170 523 c94 287 173
522 177 522 3 0 82 -235 176 -522z"/>
</g>
</svg>
