<?xml version="1.0" standalone="no"?>
<!DOCTYPE svg PUBLIC "-//W3C//DTD SVG 20010904//EN"
 "http://www.w3.org/TR/2001/REC-SVG-20010904/DTD/svg10.dtd">
<svg version="1.0" xmlns="http://www.w3.org/2000/svg"
 width="200.000000pt" height="200.000000pt" viewBox="0 0 200.000000 200.000000"
 preserveAspectRatio="xMidYMid meet">

<g transform="translate(0.000000,200.000000) scale(0.100000,-0.100000)"
fill="#000000" stroke="none">
<path d="M704 1703 l-62 -25 50 -123 50 -122 -53 -51 c-30 -27 -70 -75 -89
-106 l-35 -55 -112 -1 -113 0 0 -75 0 -75 86 0 c68 0 85 -3 81 -13 -3 -8 -8
-39 -12 -70 l-7 -57 -109 0 -109 0 0 -75 0 -75 115 0 c105 0 115 -2 115 -18 0
-10 7 -42 16 -72 l16 -53 294 294 c230 230 290 295 278 302 -25 14 -36 57 -24
88 21 51 102 60 127 15 7 -13 15 -9 48 24 37 38 38 40 20 54 -19 14 -18 18 29
135 29 71 45 125 40 130 -19 16 -118 51 -124 44 -4 -5 -26 -55 -49 -113 l-43
-105 -129 0 -129 0 -16 40 c-48 121 -77 185 -82 184 -4 0 -35 -12 -68 -26z
m180 -344 c13 -7 30 -24 36 -40 24 -58 -37 -117 -95 -91 -54 25 -57 103 -5
129 31 16 33 16 64 2z"/>
<path d="M1050 945 l-675 -675 105 0 104 0 57 56 58 57 53 -36 c195 -129 436
-93 596 89 l47 54 133 0 132 0 0 70 0 70 -96 0 c-95 0 -96 0 -90 23 4 12 12
46 18 75 l12 52 113 0 113 0 0 75 0 75 -109 0 -109 0 -7 57 c-4 31 -9 62 -12
70 -4 10 13 13 81 13 l86 0 0 75 0 75 -62 0 -63 0 98 98 98 98 -3 102 -3 102
-675 -675z"/>
</g>
</svg>
