<?xml version="1.0" encoding="UTF-8"?>
<!DOCTYPE svg PUBLIC "-//W3C//DTD SVG 1.1//EN" "http://www.w3.org/Graphics/SVG/1.1/DTD/svg11.dtd">
<svg xmlns="http://www.w3.org/2000/svg" version="1.1" width="310px" height="78px" style="shape-rendering:geometricPrecision; text-rendering:geometricPrecision; image-rendering:optimizeQuality; fill-rule:evenodd; clip-rule:evenodd" xmlns:xlink="http://www.w3.org/1999/xlink">
<g><path style="opacity:0.498" fill="currentColor" d="M 262.5,21.5 C 262.5,19.8333 262.5,18.1667 262.5,16.5C 255.863,15.7243 249.196,15.391 242.5,15.5C 239.518,15.9629 236.518,16.2962 233.5,16.5C 233.517,18.5648 233.85,20.5648 234.5,22.5C 230.944,20.6101 230.61,18.1101 233.5,15C 243.167,14.3333 252.833,14.3333 262.5,15C 263.811,17.2735 263.811,19.4402 262.5,21.5 Z"/></g>
<g><path style="opacity:0.863" fill="currentColor" d="M 153.5,20.5 C 151.468,19.9522 150.468,18.6188 150.5,16.5C 148.142,17.1784 145.975,17.5117 144,17.5C 143.503,20.146 143.336,22.8127 143.5,25.5C 143.5,29.1667 143.5,32.8333 143.5,36.5C 142.833,36.5 142.167,36.5 141.5,36.5C 142.295,29.9131 142.795,23.2464 143,16.5C 148.184,13.1775 151.684,14.5108 153.5,20.5 Z"/></g>
<g><path style="opacity:1" fill="currentColor" d="M 221.5,19.5 C 221.167,19.5 220.833,19.5 220.5,19.5C 217.332,16.9439 213.666,15.9439 209.5,16.5C 204.36,15.8026 199.693,16.8026 195.5,19.5C 195.916,17.2475 197.249,15.7475 199.5,15C 205.167,14.3333 210.833,14.3333 216.5,15C 219.115,15.6119 220.781,17.1119 221.5,19.5 Z"/></g>
<g><path style="opacity:1" fill="currentColor" d="M 69.5,15.5 C 71.5,15.5 73.5,15.5 75.5,15.5C 79.0889,16.0922 81.4222,18.0922 82.5,21.5C 81.0638,19.6815 79.3971,19.3482 77.5,20.5C 78.1667,21.1667 78.8333,21.8333 79.5,22.5C 78.7582,24.3497 77.7582,25.0164 76.5,24.5C 77.1272,25.4168 77.4606,26.4168 77.5,27.5C 76.8333,27.1667 76.1667,26.8333 75.5,26.5C 74.1283,25.4884 72.795,24.4884 71.5,23.5C 72.9778,23.762 74.3112,23.4287 75.5,22.5C 71.4028,21.9757 69.4028,19.6423 69.5,15.5 Z"/></g>
<g><path style="opacity:1" fill="currentColor" d="M 113.5,22.5 C 112.292,23.2341 110.959,23.5674 109.5,23.5C 109.473,25.1993 108.806,26.5326 107.5,27.5C 103.811,30.4838 102.144,29.4838 102.5,24.5C 102.709,23.0783 103.209,21.745 104,20.5C 104.934,23.5919 106.1,23.9253 107.5,21.5C 106.453,19.9436 105.786,18.2769 105.5,16.5C 109.654,16.5717 112.32,18.5717 113.5,22.5 Z"/></g>
<g><path style="opacity:1" fill="currentColor" d="M 242.5,16.5 C 244.924,16.1924 247.257,16.5258 249.5,17.5C 250.824,18.9347 252.49,19.9347 254.5,20.5C 252.673,22.4872 251.673,24.8205 251.5,27.5C 251.769,29.4286 251.269,31.0953 250,32.5C 249.899,29.3004 249.232,26.3004 248,23.5C 247.833,25 247.667,26.5 247.5,28C 248.35,32.7082 249.35,37.5415 250.5,42.5C 249.522,45.3248 247.522,46.6581 244.5,46.5C 244.801,38.4144 244.467,30.4144 243.5,22.5C 242.909,21.8485 242.243,21.1818 241.5,20.5C 243.078,19.7022 244.744,19.2022 246.5,19C 244.285,17.9562 241.952,17.2895 239.5,17C 240.448,16.5172 241.448,16.3505 242.5,16.5 Z"/></g>
<g><path style="opacity:0.91" fill="currentColor" d="M 75.5,15.5 C 73.5,15.5 71.5,15.5 69.5,15.5C 64.4962,14.1447 60.1629,15.4781 56.5,19.5C 55.8333,19.5 55.5,19.8333 55.5,20.5C 53.187,22.2094 51.687,24.5428 51,27.5C 50.5499,31.1875 50.7166,34.8542 51.5,38.5C 46.9062,24.0565 52.2396,15.7232 67.5,13.5C 70.4857,13.3817 73.1524,14.0483 75.5,15.5 Z"/></g>
<g><path style="opacity:1" fill="currentColor" d="M 69.5,15.5 C 69.4028,19.6423 71.4028,21.9757 75.5,22.5C 74.3112,23.4287 72.9778,23.762 71.5,23.5C 69.7354,22.5386 67.7354,22.2053 65.5,22.5C 64.4324,21.5655 63.099,21.2322 61.5,21.5C 61.3491,18.2819 60.5158,17.9485 59,20.5C 58.3292,19.7476 57.4959,19.4142 56.5,19.5C 60.1629,15.4781 64.4962,14.1447 69.5,15.5 Z"/></g>
<g><path style="opacity:1" fill="currentColor" d="M 153.5,20.5 C 153.821,21.8175 154.154,23.1508 154.5,24.5C 153.023,26.639 152.023,28.9723 151.5,31.5C 150.207,30.158 149.374,28.4913 149,26.5C 148.667,26.8333 148.333,27.1667 148,27.5C 147.782,24.5738 147.282,21.7405 146.5,19C 146.167,18.8333 145.833,18.6667 145.5,18.5C 144.526,20.7427 144.192,23.076 144.5,25.5C 144.167,25.5 143.833,25.5 143.5,25.5C 143.336,22.8127 143.503,20.146 144,17.5C 145.975,17.5117 148.142,17.1784 150.5,16.5C 150.468,18.6188 151.468,19.9522 153.5,20.5 Z"/></g>
<g><path style="opacity:1" fill="currentColor" d="M 209.5,16.5 C 213.666,15.9439 217.332,16.9439 220.5,19.5C 220.53,20.4972 220.03,21.1639 219,21.5C 217.862,21.0109 216.695,20.6775 215.5,20.5C 214.791,19.596 213.791,19.2627 212.5,19.5C 212.5,20.5 212.5,21.5 212.5,22.5C 211.5,22.5 210.5,22.5 209.5,22.5C 209.5,20.8333 209.5,19.1667 209.5,17.5C 209.5,17.1667 209.5,16.8333 209.5,16.5 Z"/></g>
<g><path style="opacity:1" fill="currentColor" d="M 242.5,15.5 C 242.5,15.8333 242.5,16.1667 242.5,16.5C 241.448,16.3505 240.448,16.5172 239.5,17C 241.952,17.2895 244.285,17.9562 246.5,19C 244.744,19.2022 243.078,19.7022 241.5,20.5C 242.243,21.1818 242.909,21.8485 243.5,22.5C 240.833,22.5 238.167,22.5 235.5,22.5C 235.167,22.5 234.833,22.5 234.5,22.5C 233.85,20.5648 233.517,18.5648 233.5,16.5C 236.518,16.2962 239.518,15.9629 242.5,15.5 Z"/></g>
<g><path style="opacity:1" fill="currentColor" d="M 242.5,16.5 C 242.5,16.1667 242.5,15.8333 242.5,15.5C 249.196,15.391 255.863,15.7243 262.5,16.5C 262.5,18.1667 262.5,19.8333 262.5,21.5C 260.189,23.0682 257.522,23.9016 254.5,24C 253.177,24.8159 252.511,25.9826 252.5,27.5C 252.167,27.5 251.833,27.5 251.5,27.5C 251.673,24.8205 252.673,22.4872 254.5,20.5C 252.49,19.9347 250.824,18.9347 249.5,17.5C 247.257,16.5258 244.924,16.1924 242.5,16.5 Z"/></g>
<g><path style="opacity:1" fill="currentColor" d="M 116.5,24.5 C 115.222,24.2178 114.222,23.5511 113.5,22.5C 112.32,18.5717 109.654,16.5717 105.5,16.5C 105.786,18.2769 106.453,19.9436 107.5,21.5C 106.1,23.9253 104.934,23.5919 104,20.5C 103.209,21.745 102.709,23.0783 102.5,24.5C 101.778,25.5511 100.778,26.2178 99.5,26.5C 100.714,23.0698 102.214,19.7365 104,16.5C 107,13.8333 110,13.8333 113,16.5C 114.454,19.0711 115.62,21.7378 116.5,24.5 Z"/></g>
<g><path style="opacity:1" fill="currentColor" d="M 209.5,17.5 C 209.5,19.1667 209.5,20.8333 209.5,22.5C 210.5,22.5 211.5,22.5 212.5,22.5C 212.5,21.5 212.5,20.5 212.5,19.5C 213.791,19.2627 214.791,19.596 215.5,20.5C 214.438,22.2341 214.438,23.9008 215.5,25.5C 215.5,26.8333 215.5,28.1667 215.5,29.5C 211.845,31.0114 208.179,31.3447 204.5,30.5C 203.167,28.8333 203.167,27.1667 204.5,25.5C 204.33,26.8221 204.663,27.9887 205.5,29C 207.833,29.6667 210.167,29.6667 212.5,29C 214.394,27.9207 214.727,26.5874 213.5,25C 210.854,24.5026 208.187,24.3359 205.5,24.5C 205.338,22.4727 205.505,20.4727 206,18.5C 207.011,17.6634 208.178,17.33 209.5,17.5 Z"/></g>
<g><path style="opacity:1" fill="currentColor" d="M 299.5,27.5 C 298.549,26.0813 298.216,24.4147 298.5,22.5C 295.784,22.6138 293.784,21.6138 292.5,19.5C 293.935,16.5948 296.102,15.9282 299,17.5C 299.498,20.8168 299.665,24.1501 299.5,27.5 Z"/></g>
<g><path style="opacity:1" fill="currentColor" d="M 185.5,16.5 C 187.093,17.3479 188.26,18.6813 189,20.5C 189.49,19.2068 189.657,17.8734 189.5,16.5C 190.5,16.5 191.5,16.5 192.5,16.5C 192.851,19.2377 193.518,21.9044 194.5,24.5C 192.709,25.1698 191.042,25.8365 189.5,26.5C 187.972,27.8021 186.972,29.4687 186.5,31.5C 186.563,26.7971 186.229,22.1304 185.5,17.5C 185.5,17.1667 185.5,16.8333 185.5,16.5 Z"/></g>
<g><path style="opacity:1" fill="currentColor" d="M 209.5,16.5 C 209.5,16.8333 209.5,17.1667 209.5,17.5C 208.178,17.33 207.011,17.6634 206,18.5C 205.505,20.4727 205.338,22.4727 205.5,24.5C 203.43,24.5514 201.597,23.8847 200,22.5C 198.862,22.9891 197.695,23.3225 196.5,23.5C 194.896,22.713 194.229,21.3797 194.5,19.5C 194.833,19.5 195.167,19.5 195.5,19.5C 199.693,16.8026 204.36,15.8026 209.5,16.5 Z"/></g>
<g><path style="opacity:1" fill="currentColor" d="M 151.5,31.5 C 152.6,32.6049 153.267,33.9382 153.5,35.5C 152.167,35.5 150.833,35.5 149.5,35.5C 149.366,37.2915 149.699,38.9582 150.5,40.5C 149.222,40.7822 148.222,41.4489 147.5,42.5C 147.218,39.6533 147.218,36.9866 147.5,34.5C 146.242,35.0164 145.242,34.3497 144.5,32.5C 146.981,30.1207 146.981,27.7873 144.5,25.5C 144.192,23.076 144.526,20.7427 145.5,18.5C 145.833,18.6667 146.167,18.8333 146.5,19C 147.282,21.7405 147.782,24.5738 148,27.5C 148.333,27.1667 148.667,26.8333 149,26.5C 149.374,28.4913 150.207,30.158 151.5,31.5 Z"/></g>
<g><path style="opacity:1" fill="currentColor" d="M 220.5,19.5 C 220.833,19.5 221.167,19.5 221.5,19.5C 223.033,21.6345 223.7,24.1345 223.5,27C 223.494,29.0326 223.161,30.866 222.5,32.5C 222.817,29.4281 222.484,26.4281 221.5,23.5C 219.827,25.0863 217.827,25.7529 215.5,25.5C 214.438,23.9008 214.438,22.2341 215.5,20.5C 216.695,20.6775 217.862,21.0109 219,21.5C 220.03,21.1639 220.53,20.4972 220.5,19.5 Z"/></g>
<g><path style="opacity:1" fill="currentColor" d="M 65.5,22.5 C 62.5809,23.4498 59.9142,23.4498 57.5,22.5C 59.5964,25.677 59.5964,29.0104 57.5,32.5C 58.4196,34.7857 58.4196,37.1191 57.5,39.5C 57.8333,40.8333 58.1667,42.1667 58.5,43.5C 57.5,43.5 56.5,43.5 55.5,43.5C 55.5,40.1667 55.5,36.8333 55.5,33.5C 54.0222,33.762 52.6888,33.4287 51.5,32.5C 53.0201,29.4328 54.6868,26.4328 56.5,23.5C 55.8728,22.5832 55.5394,21.5832 55.5,20.5C 55.5,19.8333 55.8333,19.5 56.5,19.5C 57.4959,19.4142 58.3292,19.7476 59,20.5C 60.5158,17.9485 61.3491,18.2819 61.5,21.5C 63.099,21.2322 64.4324,21.5655 65.5,22.5 Z"/></g>
<g><path style="opacity:1" fill="currentColor" d="M 170.5,36.5 C 170.833,36.5 171.167,36.5 171.5,36.5C 171.335,39.5184 171.502,42.5184 172,45.5C 173.808,47.5582 175.975,47.8916 178.5,46.5C 178.5,45.5 178.5,44.5 178.5,43.5C 178.666,36.4921 178.5,29.4921 178,22.5C 177.376,20.246 176.043,18.5794 174,17.5C 173.4,20.0953 173.9,22.4287 175.5,24.5C 176.833,27.1667 176.167,27.8333 173.5,26.5C 172.292,25.7659 170.959,25.4326 169.5,25.5C 169.657,28.344 168.324,30.0107 165.5,30.5C 164.903,30.2648 164.57,29.7648 164.5,29C 165.885,27.4029 166.551,25.5695 166.5,23.5C 167.834,19.0016 170.667,16.0016 175,14.5C 176.711,14.4393 178.044,15.1059 179,16.5C 179.667,26.8333 179.667,37.1667 179,47.5C 176.034,50.2652 173.367,49.9318 171,46.5C 170.502,43.1832 170.335,39.8499 170.5,36.5 Z"/></g>
<g><path style="opacity:1" fill="currentColor" d="M 185.5,17.5 C 186.229,22.1304 186.563,26.7971 186.5,31.5C 186.5,32.8333 186.5,34.1667 186.5,35.5C 186.335,39.1817 186.501,42.8484 187,46.5C 188.699,47.4061 190.533,47.7394 192.5,47.5C 189.934,49.9639 187.434,49.6305 185,46.5C 184.175,36.6578 184.342,26.9911 185.5,17.5 Z"/></g>
<g><path style="opacity:1" fill="currentColor" d="M 280.5,27.5 C 282.159,28.8342 283.492,30.5008 284.5,32.5C 281.167,34.2518 279.501,33.2518 279.5,29.5C 278.448,29.3505 277.448,29.5172 276.5,30C 277.337,31.0113 277.67,32.1779 277.5,33.5C 275.833,33.5 274.167,33.5 272.5,33.5C 272.662,31.4727 272.495,29.4727 272,27.5C 271.329,26.7476 270.496,26.4142 269.5,26.5C 268.846,22.1606 269.846,18.3273 272.5,15C 274.568,14.3131 276.568,14.4798 278.5,15.5C 279.227,19.5406 279.894,23.5406 280.5,27.5 Z"/></g>
<g><path style="opacity:1" fill="currentColor" d="M 175.5,24.5 C 176.725,25.1522 177.392,26.3189 177.5,28C 177.38,33.1908 177.047,38.3575 176.5,43.5C 176.179,45.0481 175.179,45.7148 173.5,45.5C 173.262,42.5918 174.262,40.2585 176.5,38.5C 175.547,36.5448 174.213,34.8782 172.5,33.5C 171.614,34.325 171.281,35.325 171.5,36.5C 171.167,36.5 170.833,36.5 170.5,36.5C 170.167,36.5 169.833,36.5 169.5,36.5C 168.624,36.6309 167.957,36.2975 167.5,35.5C 168.654,31.7685 170.654,28.7685 173.5,26.5C 176.167,27.8333 176.833,27.1667 175.5,24.5 Z"/></g>
<g><path style="opacity:1" fill="currentColor" d="M 102.5,24.5 C 102.144,29.4838 103.811,30.4838 107.5,27.5C 108.167,27.5 108.5,27.8333 108.5,28.5C 105.771,31.3678 106.438,32.0345 110.5,30.5C 110.137,29.8165 109.804,29.1499 109.5,28.5C 112.336,28.8373 113.002,30.1707 111.5,32.5C 108.336,32.5578 105.336,33.2245 102.5,34.5C 102.737,33.209 102.404,32.209 101.5,31.5C 100.504,31.5858 99.6708,31.2524 99,30.5C 98.5065,32.1341 98.3398,33.8008 98.5,35.5C 97.325,35.281 96.325,35.6143 95.5,36.5C 97.3316,37.0568 98.6649,38.0568 99.5,39.5C 99.5,40.1667 99.5,40.8333 99.5,41.5C 97.549,41.7733 96.049,41.1066 95,39.5C 94.5831,40.756 93.7498,41.4226 92.5,41.5C 94.4358,36.2563 96.7691,31.2563 99.5,26.5C 100.778,26.2178 101.778,25.5511 102.5,24.5 Z M 108.5,28.5 C 108.833,28.5 109.167,28.5 109.5,28.5C 109.804,29.1499 110.137,29.8165 110.5,30.5C 106.438,32.0345 105.771,31.3678 108.5,28.5 Z"/></g>
<g><path style="opacity:1" fill="currentColor" d="M 292.5,19.5 C 293.784,21.6138 295.784,22.6138 298.5,22.5C 298.216,24.4147 298.549,26.0813 299.5,27.5C 299.5,28.1667 299.5,28.8333 299.5,29.5C 298.679,32.6414 298.179,35.9748 298,39.5C 297.686,37.1311 296.852,34.9644 295.5,33C 295.645,32.228 295.978,31.5613 296.5,31C 294.848,29.934 293.181,29.434 291.5,29.5C 292.457,26.6653 292.124,23.9986 290.5,21.5C 290.5,21.1667 290.5,20.8333 290.5,20.5C 291.167,20.1667 291.833,19.8333 292.5,19.5 Z"/></g>
<g><path style="opacity:1" fill="currentColor" d="M 189.5,26.5 C 189.045,29.9308 190.379,32.2642 193.5,33.5C 194.239,33.369 194.906,33.5357 195.5,34C 192.856,36.2754 192.856,38.6088 195.5,41C 195.43,41.7648 195.097,42.2648 194.5,42.5C 194.225,40.2417 193.225,39.9084 191.5,41.5C 190.355,40.2243 190.355,38.891 191.5,37.5C 190.552,34.8371 188.886,34.1704 186.5,35.5C 186.5,34.1667 186.5,32.8333 186.5,31.5C 186.972,29.4687 187.972,27.8021 189.5,26.5 Z"/></g>
<g><path style="opacity:1" fill="currentColor" d="M 235.5,22.5 C 238.167,22.5 240.833,22.5 243.5,22.5C 244.467,30.4144 244.801,38.4144 244.5,46.5C 247.522,46.6581 249.522,45.3248 250.5,42.5C 251.167,42.1667 251.833,41.8333 252.5,41.5C 253.096,48.6095 250.263,50.6095 244,47.5C 242.565,39.6112 242.065,31.6112 242.5,23.5C 239.941,23.8016 237.607,23.4682 235.5,22.5 Z"/></g>
<g><path style="opacity:1" fill="currentColor" d="M 113.5,22.5 C 114.222,23.5511 115.222,24.2178 116.5,24.5C 116.79,27.7847 116.123,30.7847 114.5,33.5C 113.209,33.7373 112.209,33.404 111.5,32.5C 113.002,30.1707 112.336,28.8373 109.5,28.5C 109.167,28.5 108.833,28.5 108.5,28.5C 108.5,27.8333 108.167,27.5 107.5,27.5C 108.806,26.5326 109.473,25.1993 109.5,23.5C 110.959,23.5674 112.292,23.2341 113.5,22.5 Z"/></g>
<g><path style="opacity:1" fill="currentColor" d="M 194.5,19.5 C 194.229,21.3797 194.896,22.713 196.5,23.5C 196.5,25.5 196.5,27.5 196.5,29.5C 195.819,31.7229 194.819,33.0563 193.5,33.5C 190.379,32.2642 189.045,29.9308 189.5,26.5C 191.042,25.8365 192.709,25.1698 194.5,24.5C 193.518,21.9044 192.851,19.2377 192.5,16.5C 191.5,16.5 190.5,16.5 189.5,16.5C 189.657,17.8734 189.49,19.2068 189,20.5C 188.26,18.6813 187.093,17.3479 185.5,16.5C 187.455,14.6742 189.788,14.1742 192.5,15C 194.037,16.1096 194.703,17.6096 194.5,19.5 Z"/></g>
<g><path style="opacity:1" fill="currentColor" d="M 38.5,32.5 C 37.609,31.8902 36.609,31.5569 35.5,31.5C 30.3595,23.0089 23.3595,21.0089 14.5,25.5C 14.5569,24.391 14.8902,23.391 15.5,22.5C 23.0453,18.7484 29.8786,20.0817 36,26.5C 37.122,28.4068 37.9553,30.4068 38.5,32.5 Z"/></g>
<g><path style="opacity:1" fill="currentColor" d="M 82.5,21.5 C 82.4734,24.2298 83.1401,26.7298 84.5,29C 84.2191,31.2916 83.5524,33.4583 82.5,35.5C 81.8333,34.8333 81.1667,34.1667 80.5,33.5C 80.1667,34 79.8333,34.5 79.5,35C 80.4295,36.0769 81.0962,37.2436 81.5,38.5C 79.6208,39.3414 77.6208,39.6747 75.5,39.5C 76.799,35.6295 77.4657,31.6295 77.5,27.5C 77.4606,26.4168 77.1272,25.4168 76.5,24.5C 77.7582,25.0164 78.7582,24.3497 79.5,22.5C 78.8333,21.8333 78.1667,21.1667 77.5,20.5C 79.3971,19.3482 81.0638,19.6815 82.5,21.5 Z"/></g>
<g><path style="opacity:1" fill="currentColor" d="M 178.5,43.5 C 177.833,43.5 177.167,43.5 176.5,43.5C 177.047,38.3575 177.38,33.1908 177.5,28C 177.392,26.3189 176.725,25.1522 175.5,24.5C 173.9,22.4287 173.4,20.0953 174,17.5C 176.043,18.5794 177.376,20.246 178,22.5C 178.5,29.4921 178.666,36.4921 178.5,43.5 Z"/></g>
<g><path style="opacity:1" fill="currentColor" d="M 205.5,24.5 C 205.5,25.1667 205.167,25.5 204.5,25.5C 203.167,27.1667 203.167,28.8333 204.5,30.5C 204.5,30.8333 204.5,31.1667 204.5,31.5C 202.857,31.4802 201.524,32.1468 200.5,33.5C 199.833,33.1667 199.167,32.8333 198.5,32.5C 197.832,34.9688 197.165,37.3021 196.5,39.5C 196.5,36.1667 196.5,32.8333 196.5,29.5C 196.5,27.5 196.5,25.5 196.5,23.5C 197.695,23.3225 198.862,22.9891 200,22.5C 201.597,23.8847 203.43,24.5514 205.5,24.5 Z"/></g>
<g><path style="opacity:1" fill="currentColor" d="M 166.5,23.5 C 166.551,25.5695 165.885,27.4029 164.5,29C 164.57,29.7648 164.903,30.2648 165.5,30.5C 165.5,32.8333 165.5,35.1667 165.5,37.5C 166.5,37.5 167.5,37.5 168.5,37.5C 166.486,40.3466 163.986,42.6799 161,44.5C 158.684,43.3496 156.85,41.6829 155.5,39.5C 157.044,39.2969 158.378,38.6302 159.5,37.5C 160.386,38.325 160.719,39.325 160.5,40.5C 161.833,40.5 163.167,40.5 164.5,40.5C 164.065,38.2967 164.065,36.2967 164.5,34.5C 163.976,32.6943 163.309,31.0276 162.5,29.5C 163.351,27.1184 164.684,25.1184 166.5,23.5 Z"/></g>
<g><path style="opacity:1" fill="currentColor" d="M 173.5,26.5 C 170.654,28.7685 168.654,31.7685 167.5,35.5C 167.957,36.2975 168.624,36.6309 169.5,36.5C 169.5,37.1667 169.167,37.5 168.5,37.5C 167.5,37.5 166.5,37.5 165.5,37.5C 165.5,35.1667 165.5,32.8333 165.5,30.5C 168.324,30.0107 169.657,28.344 169.5,25.5C 170.959,25.4326 172.292,25.7659 173.5,26.5 Z"/></g>
<g><path style="opacity:1" fill="currentColor" d="M 204.5,31.5 C 206.144,32.3164 207.31,33.6498 208,35.5C 209.174,33.3291 211.007,32.3291 213.5,32.5C 213.567,33.9587 213.234,35.2921 212.5,36.5C 202.267,34.0725 199.267,37.7392 203.5,47.5C 202.167,47.5 200.833,47.5 199.5,47.5C 199.775,42.7797 198.941,42.4463 197,46.5C 196.503,44.1902 196.337,41.8568 196.5,39.5C 197.165,37.3021 197.832,34.9688 198.5,32.5C 199.167,32.8333 199.833,33.1667 200.5,33.5C 201.524,32.1468 202.857,31.4802 204.5,31.5 Z"/></g>
<g><path style="opacity:1" fill="currentColor" d="M 215.5,29.5 C 215.357,31.2624 215.691,32.9291 216.5,34.5C 215.66,35.735 214.66,36.735 213.5,37.5C 212.833,37.5 212.5,37.1667 212.5,36.5C 213.234,35.2921 213.567,33.9587 213.5,32.5C 211.007,32.3291 209.174,33.3291 208,35.5C 207.31,33.6498 206.144,32.3164 204.5,31.5C 204.5,31.1667 204.5,30.8333 204.5,30.5C 208.179,31.3447 211.845,31.0114 215.5,29.5 Z"/></g>
<g><path style="opacity:1" fill="currentColor" d="M 55.5,20.5 C 55.5394,21.5832 55.8728,22.5832 56.5,23.5C 54.6868,26.4328 53.0201,29.4328 51.5,32.5C 52.6888,33.4287 54.0222,33.762 55.5,33.5C 55.5,36.8333 55.5,40.1667 55.5,43.5C 56.5,43.5 57.5,43.5 58.5,43.5C 61.425,41.0465 62.0916,41.7132 60.5,45.5C 59.6618,45.8417 59.3284,46.5084 59.5,47.5C 55.4118,45.7461 52.7451,42.7461 51.5,38.5C 50.7166,34.8542 50.5499,31.1875 51,27.5C 51.687,24.5428 53.187,22.2094 55.5,20.5 Z"/></g>
<g><path style="opacity:1" fill="currentColor" d="M 116.5,24.5 C 118.736,28.6446 120.736,32.978 122.5,37.5C 122.373,41.33 120.706,42.6633 117.5,41.5C 116.587,39.1652 115.253,36.9985 113.5,35C 114.056,34.6174 114.389,34.1174 114.5,33.5C 116.123,30.7847 116.79,27.7847 116.5,24.5 Z"/></g>
<g><path style="opacity:1" fill="currentColor" d="M 164.5,34.5 C 164.065,36.2967 164.065,38.2967 164.5,40.5C 163.167,40.5 161.833,40.5 160.5,40.5C 160.719,39.325 160.386,38.325 159.5,37.5C 158.378,38.6302 157.044,39.2969 155.5,39.5C 155.5,38.8333 155.5,38.1667 155.5,37.5C 155.721,36.2652 156.388,35.2652 157.5,34.5C 156.729,28.3083 158.062,27.975 161.5,33.5C 162.325,34.3857 163.325,34.719 164.5,34.5 Z"/></g>
<g><path style="opacity:1" fill="currentColor" d="M 222.5,32.5 C 221.952,34.3936 220.952,36.0603 219.5,37.5C 223.148,42.4807 227.148,47.1473 231.5,51.5C 231.167,51.5 230.833,51.5 230.5,51.5C 228.914,50.8519 227.247,50.3519 225.5,50C 226.056,49.6174 226.389,49.1174 226.5,48.5C 224.099,46.0371 221.933,43.3704 220,40.5C 217.256,41.7404 215.423,43.7404 214.5,46.5C 212.738,45.7377 211.738,44.4044 211.5,42.5C 211.833,42.5 212.167,42.5 212.5,42.5C 214.305,41.7629 215.971,40.7629 217.5,39.5C 218.76,37.6471 218.76,35.8138 217.5,34C 218.905,32.7308 220.571,32.2308 222.5,32.5 Z"/></g>
<g><path style="opacity:1" fill="currentColor" d="M 153.5,20.5 C 155.752,23.9324 158.252,27.2658 161,30.5C 161.383,29.944 161.883,29.6107 162.5,29.5C 163.309,31.0276 163.976,32.6943 164.5,34.5C 163.325,34.719 162.325,34.3857 161.5,33.5C 158.062,27.975 156.729,28.3083 157.5,34.5C 156.388,35.2652 155.721,36.2652 155.5,37.5C 154.5,37.1667 153.833,36.5 153.5,35.5C 153.267,33.9382 152.6,32.6049 151.5,31.5C 152.023,28.9723 153.023,26.639 154.5,24.5C 154.154,23.1508 153.821,21.8175 153.5,20.5 Z"/></g>
<g><path style="opacity:1" fill="currentColor" d="M 251.5,27.5 C 251.833,27.5 252.167,27.5 252.5,27.5C 252.5,32.1667 252.5,36.8333 252.5,41.5C 251.833,41.8333 251.167,42.1667 250.5,42.5C 249.35,37.5415 248.35,32.7082 247.5,28C 247.667,26.5 247.833,25 248,23.5C 249.232,26.3004 249.899,29.3004 250,32.5C 251.269,31.0953 251.769,29.4286 251.5,27.5 Z"/></g>
<g><path style="opacity:1" fill="currentColor" d="M 290.5,21.5 C 292.124,23.9986 292.457,26.6653 291.5,29.5C 290.167,29.5 288.833,29.5 287.5,29.5C 287.5,31.5 287.5,33.5 287.5,35.5C 288.822,35.33 289.989,35.6634 291,36.5C 291.297,39.914 291.964,43.2473 293,46.5C 294.699,47.4061 296.533,47.7394 298.5,47.5C 296.55,49.952 294.384,49.952 292,47.5C 290.684,44.3117 290.184,40.9783 290.5,37.5C 287.167,37.5 283.833,37.5 280.5,37.5C 280.038,36.1201 279.038,35.4534 277.5,35.5C 275.823,36.1869 274.156,36.8535 272.5,37.5C 272.5,36.1667 272.5,34.8333 272.5,33.5C 274.167,33.5 275.833,33.5 277.5,33.5C 277.67,32.1779 277.337,31.0113 276.5,30C 277.448,29.5172 278.448,29.3505 279.5,29.5C 279.501,33.2518 281.167,34.2518 284.5,32.5C 283.492,30.5008 282.159,28.8342 280.5,27.5C 283.833,27.5 287.167,27.5 290.5,27.5C 290.5,25.5 290.5,23.5 290.5,21.5 Z"/></g>
<g><path style="opacity:0.573" fill="currentColor" d="M 75.5,26.5 C 76.1667,26.8333 76.8333,27.1667 77.5,27.5C 77.4657,31.6295 76.799,35.6295 75.5,39.5C 73.4325,38.7372 71.7659,37.4039 70.5,35.5C 69.5713,36.6888 69.238,38.0222 69.5,39.5C 69.1667,39.5 68.8333,39.5 68.5,39.5C 68.1667,39.5 67.8333,39.5 67.5,39.5C 67.4208,38.0695 67.7542,36.7362 68.5,35.5C 71.0272,34.7864 73.5272,34.1197 76,33.5C 76.3336,31.1527 76.167,28.8194 75.5,26.5 Z"/></g>
<g><path style="opacity:1" fill="currentColor" d="M 82.5,21.5 C 83.9663,22.347 84.7996,23.6803 85,25.5C 85.9317,30.9894 85.4317,36.3228 83.5,41.5C 84.6302,42.6223 85.2969,43.9557 85.5,45.5C 83.4004,45.4772 81.5671,46.1439 80,47.5C 78.1284,46.5126 78.2951,45.8459 80.5,45.5C 82.534,43.3452 82.8674,41.0118 81.5,38.5C 81.0962,37.2436 80.4295,36.0769 79.5,35C 79.8333,34.5 80.1667,34 80.5,33.5C 81.1667,34.1667 81.8333,34.8333 82.5,35.5C 83.5524,33.4583 84.2191,31.2916 84.5,29C 83.1401,26.7298 82.4734,24.2298 82.5,21.5 Z"/></g>
<g><path style="opacity:1" fill="currentColor" d="M 101.5,31.5 C 101.275,33.7159 102.108,35.3826 104,36.5C 106.51,34.5237 109.01,34.3571 111.5,36C 108.834,37.0605 106.167,37.8939 103.5,38.5C 102.432,39.4345 101.099,39.7678 99.5,39.5C 98.6649,38.0568 97.3316,37.0568 95.5,36.5C 96.325,35.6143 97.325,35.281 98.5,35.5C 98.3398,33.8008 98.5065,32.1341 99,30.5C 99.6708,31.2524 100.504,31.5858 101.5,31.5 Z"/></g>
<g><path style="opacity:1" fill="currentColor" d="M 143.5,25.5 C 143.833,25.5 144.167,25.5 144.5,25.5C 146.981,27.7873 146.981,30.1207 144.5,32.5C 145.242,34.3497 146.242,35.0164 147.5,34.5C 147.218,36.9866 147.218,39.6533 147.5,42.5C 147.44,43.0431 147.107,43.3764 146.5,43.5C 145.868,40.8976 144.868,38.5643 143.5,36.5C 143.5,32.8333 143.5,29.1667 143.5,25.5 Z"/></g>
<g><path style="opacity:1" fill="currentColor" d="M 101.5,31.5 C 102.404,32.209 102.737,33.209 102.5,34.5C 105.336,33.2245 108.336,32.5578 111.5,32.5C 112.209,33.404 113.209,33.7373 114.5,33.5C 114.389,34.1174 114.056,34.6174 113.5,35C 115.253,36.9985 116.587,39.1652 117.5,41.5C 117.167,41.5 116.833,41.5 116.5,41.5C 116.423,40.2502 115.756,39.4169 114.5,39C 110.848,38.5014 107.182,38.3347 103.5,38.5C 106.167,37.8939 108.834,37.0605 111.5,36C 109.01,34.3571 106.51,34.5237 104,36.5C 102.108,35.3826 101.275,33.7159 101.5,31.5 Z"/></g>
<g><path style="opacity:1" fill="currentColor" d="M 212.5,36.5 C 212.5,37.1667 212.833,37.5 213.5,37.5C 211.401,38.8149 211.067,40.4816 212.5,42.5C 212.167,42.5 211.833,42.5 211.5,42.5C 210.102,40.8912 208.435,40.0579 206.5,40C 205.78,42.4908 205.113,44.9908 204.5,47.5C 204.167,47.5 203.833,47.5 203.5,47.5C 199.267,37.7392 202.267,34.0725 212.5,36.5 Z"/></g>
<g><path style="opacity:1" fill="#0aadeb" d="M 291.5,29.5 C 293.181,29.434 294.848,29.934 296.5,31C 295.978,31.5613 295.645,32.228 295.5,33C 296.852,34.9644 297.686,37.1311 298,39.5C 298.179,35.9748 298.679,32.6414 299.5,29.5C 299.5,35.1667 299.5,40.8333 299.5,46.5C 299.5,47.1667 299.167,47.5 298.5,47.5C 296.533,47.7394 294.699,47.4061 293,46.5C 291.964,43.2473 291.297,39.914 291,36.5C 289.989,35.6634 288.822,35.33 287.5,35.5C 287.5,33.5 287.5,31.5 287.5,29.5C 288.833,29.5 290.167,29.5 291.5,29.5 Z"/></g>
<g><path style="opacity:1" fill="#05aded" d="M 280.5,37.5 C 279.833,37.5 279.5,37.8333 279.5,38.5C 278.686,40.631 278.186,42.9644 278,45.5C 276.293,46.1383 274.46,46.1383 272.5,45.5C 272.5,42.8333 272.5,40.1667 272.5,37.5C 274.156,36.8535 275.823,36.1869 277.5,35.5C 279.038,35.4534 280.038,36.1201 280.5,37.5 Z"/></g>
<g><path style="opacity:1" fill="#4fafd3" d="M 15.5,22.5 C 14.8902,23.391 14.5569,24.391 14.5,25.5C 7.13344,34.5676 8.13344,42.5676 17.5,49.5C 16.5084,49.3284 15.8417,49.6618 15.5,50.5C 6.19832,45.0182 4.03165,37.3516 9,27.5C 10.7772,25.2101 12.9438,23.5434 15.5,22.5 Z"/></g>
<g><path style="opacity:1" fill="#28addd" d="M 65.5,22.5 C 67.7354,22.2053 69.7354,22.5386 71.5,23.5C 62.3416,22.4906 58.5082,26.4906 60,35.5C 61.883,38.0244 64.383,39.3577 67.5,39.5C 67.8333,39.5 68.1667,39.5 68.5,39.5C 68.2089,40.6491 67.3756,41.3158 66,41.5C 63.3211,40.1055 60.4877,39.4388 57.5,39.5C 58.4196,37.1191 58.4196,34.7857 57.5,32.5C 59.5964,29.0104 59.5964,25.677 57.5,22.5C 59.9142,23.4498 62.5809,23.4498 65.5,22.5 Z"/></g>
<g><path style="opacity:1" fill="#07acf0" d="M 33.5,37.5 C 33.5,38.1667 33.5,38.8333 33.5,39.5C 32.3702,41.3146 31.7036,43.3146 31.5,45.5C 28.1933,44.9492 24.8599,44.6159 21.5,44.5C 21.5,43.5 21.5,42.5 21.5,41.5C 23.1992,41.6602 24.8659,41.4935 26.5,41C 28.2847,38.7743 30.6181,37.6076 33.5,37.5 Z"/></g>
<g><path style="opacity:1" fill="#08adf0" d="M 222.5,32.5 C 220.571,32.2308 218.905,32.7308 217.5,34C 218.76,35.8138 218.76,37.6471 217.5,39.5C 215.971,40.7629 214.305,41.7629 212.5,42.5C 211.067,40.4816 211.401,38.8149 213.5,37.5C 214.66,36.735 215.66,35.735 216.5,34.5C 215.691,32.9291 215.357,31.2624 215.5,29.5C 215.5,28.1667 215.5,26.8333 215.5,25.5C 217.827,25.7529 219.827,25.0863 221.5,23.5C 222.484,26.4281 222.817,29.4281 222.5,32.5 Z"/></g>
<g><path style="opacity:1" fill="#31b0e0" d="M 103.5,38.5 C 107.182,38.3347 110.848,38.5014 114.5,39C 115.756,39.4169 116.423,40.2502 116.5,41.5C 117.038,43.1172 117.371,44.7839 117.5,46.5C 116.31,44.6455 114.977,42.8121 113.5,41C 110.167,40.3333 106.833,40.3333 103.5,41C 101.683,42.7998 100.516,44.9664 100,47.5C 99.3292,48.2524 98.4959,48.5858 97.5,48.5C 98.0144,46.3016 99.0144,44.3016 100.5,42.5C 100.376,41.8933 100.043,41.56 99.5,41.5C 99.5,40.8333 99.5,40.1667 99.5,39.5C 101.099,39.7678 102.432,39.4345 103.5,38.5 Z"/></g>
<g><path style="opacity:1" fill="#29abdf" d="M 269.5,26.5 C 270.496,26.4142 271.329,26.7476 272,27.5C 272.495,29.4727 272.662,31.4727 272.5,33.5C 272.5,34.8333 272.5,36.1667 272.5,37.5C 272.5,40.1667 272.5,42.8333 272.5,45.5C 274.46,46.1383 276.293,46.1383 278,45.5C 278.186,42.9644 278.686,40.631 279.5,38.5C 279.665,41.5184 279.498,44.5184 279,47.5C 276.456,50.0801 273.956,50.0801 271.5,47.5C 270.833,40.4702 270.166,33.4702 269.5,26.5 Z"/></g>
<g><path style="opacity:0.675" fill="#47a5cd" d="M 299.5,46.5 C 299.5,40.8333 299.5,35.1667 299.5,29.5C 299.5,28.8333 299.5,28.1667 299.5,27.5C 299.665,24.1501 299.498,20.8168 299,17.5C 296.102,15.9282 293.935,16.5948 292.5,19.5C 291.833,19.8333 291.167,20.1667 290.5,20.5C 291.827,14.4331 294.994,13.0997 300,16.5C 300.825,26.6753 300.658,36.6753 299.5,46.5 Z"/></g>
<g><path style="opacity:1" fill="#04acef" d="M 57.5,39.5 C 60.4877,39.4388 63.3211,40.1055 66,41.5C 67.3756,41.3158 68.2089,40.6491 68.5,39.5C 68.8333,39.5 69.1667,39.5 69.5,39.5C 69.2627,40.791 69.596,41.791 70.5,42.5C 67.7773,45.9668 64.444,46.9668 60.5,45.5C 62.0916,41.7132 61.425,41.0465 58.5,43.5C 58.1667,42.1667 57.8333,40.8333 57.5,39.5 Z"/></g>
<g><path style="opacity:1" fill="#03abf1" d="M 75.5,39.5 C 77.6208,39.6747 79.6208,39.3414 81.5,38.5C 82.8674,41.0118 82.534,43.3452 80.5,45.5C 80.2648,44.9033 79.7648,44.5699 79,44.5C 77.3745,45.2887 75.8745,46.2887 74.5,47.5C 74.1667,47.1667 73.8333,46.8333 73.5,46.5C 74.8532,45.4763 75.5198,44.143 75.5,42.5C 73.8333,42.5 72.1667,42.5 70.5,42.5C 69.596,41.791 69.2627,40.791 69.5,39.5C 69.238,38.0222 69.5713,36.6888 70.5,35.5C 71.7659,37.4039 73.4325,38.7372 75.5,39.5 Z"/></g>
<g><path style="opacity:0.69" fill="#41aed7" d="M 33.5,37.5 C 30.6181,37.6076 28.2847,38.7743 26.5,41C 24.8659,41.4935 23.1992,41.6602 21.5,41.5C 21.5,42.5 21.5,43.5 21.5,44.5C 15.7484,40.7387 15.0818,36.2387 19.5,31C 20.7659,30.6905 21.9326,30.1905 23,29.5C 26.983,31.5702 30.483,34.2368 33.5,37.5 Z M 21.5,32.5 C 26.6804,33.4042 27.6804,35.9042 24.5,40C 19.9167,40.9337 18.4167,39.1004 20,34.5C 20.7172,33.9558 21.2172,33.2891 21.5,32.5 Z"/></g>
<g><path style="opacity:1" fill="#39afd9" d="M 35.5,31.5 C 36.609,31.5569 37.609,31.8902 38.5,32.5C 39.8236,35.1357 39.8236,37.8023 38.5,40.5C 40.6324,43.4045 40.9657,46.4045 39.5,49.5C 39.5,47.5 39.5,45.5 39.5,43.5C 37.0576,43.6463 36.3909,42.813 37.5,41C 36.6195,40.2917 35.9528,39.4584 35.5,38.5C 36.4385,36.2436 36.4385,33.9103 35.5,31.5 Z"/></g>
<g><path style="opacity:1" fill="#21b0e8" d="M 141.5,37.5 C 142.765,38.5145 143.431,40.0145 143.5,42C 143.431,43.9855 142.765,45.4855 141.5,46.5C 141.083,45.8761 140.416,45.5427 139.5,45.5C 137.944,46.5471 136.277,47.2137 134.5,47.5C 134.5,46.1667 134.5,44.8333 134.5,43.5C 135.873,43.6567 137.207,43.49 138.5,43C 136.19,42.5034 133.857,42.3367 131.5,42.5C 131.5,43.5 131.5,44.5 131.5,45.5C 129.282,45.6138 127.282,46.2804 125.5,47.5C 125.5,45.8333 125.5,44.1667 125.5,42.5C 130.705,40.281 136.039,39.9476 141.5,41.5C 141.5,40.1667 141.5,38.8333 141.5,37.5 Z"/></g>
<g><path style="opacity:1" fill="#04aced" d="M 194.5,42.5 C 192.744,43.5521 192.077,45.2188 192.5,47.5C 190.533,47.7394 188.699,47.4061 187,46.5C 186.501,42.8484 186.335,39.1817 186.5,35.5C 188.886,34.1704 190.552,34.8371 191.5,37.5C 190.355,38.891 190.355,40.2243 191.5,41.5C 193.225,39.9084 194.225,40.2417 194.5,42.5 Z"/></g>
<g><path style="opacity:1" fill="#19afe5" d="M 122.5,37.5 C 123.737,38.9649 124.737,40.6316 125.5,42.5C 123.195,43.7871 120.862,45.1204 118.5,46.5C 120.773,49.2471 121.106,52.2471 119.5,55.5C 119.5,56.1667 119.167,56.5 118.5,56.5C 118.737,55.209 118.404,54.209 117.5,53.5C 118.546,51.1183 118.546,48.7849 117.5,46.5C 117.371,44.7839 117.038,43.1172 116.5,41.5C 116.833,41.5 117.167,41.5 117.5,41.5C 120.706,42.6633 122.373,41.33 122.5,37.5 Z"/></g>
<g><path style="opacity:0.773" fill="#2fb3e7" d="M 196.5,29.5 C 196.5,32.8333 196.5,36.1667 196.5,39.5C 196.337,41.8568 196.503,44.1902 197,46.5C 198.941,42.4463 199.775,42.7797 199.5,47.5C 200.833,47.5 202.167,47.5 203.5,47.5C 203.833,47.5 204.167,47.5 204.5,47.5C 200.115,50.6096 196.948,49.6096 195,44.5C 194.623,45.9423 193.79,46.9423 192.5,47.5C 192.077,45.2188 192.744,43.5521 194.5,42.5C 195.097,42.2648 195.43,41.7648 195.5,41C 192.856,38.6088 192.856,36.2754 195.5,34C 194.906,33.5357 194.239,33.369 193.5,33.5C 194.819,33.0563 195.819,31.7229 196.5,29.5 Z"/></g>
<g><path style="opacity:1" fill="#23ade6" d="M 99.5,41.5 C 100.043,41.56 100.376,41.8933 100.5,42.5C 99.0144,44.3016 98.0144,46.3016 97.5,48.5C 95.0642,49.5716 92.8975,48.905 91,46.5C 90.4014,44.4652 90.9014,42.7985 92.5,41.5C 93.7498,41.4226 94.5831,40.756 95,39.5C 96.049,41.1066 97.549,41.7733 99.5,41.5 Z"/></g>
<g><path style="opacity:0.686" fill="#36aedd" d="M 153.5,35.5 C 153.833,36.5 154.5,37.1667 155.5,37.5C 155.5,38.1667 155.5,38.8333 155.5,39.5C 154.206,38.7101 153.039,37.7101 152,36.5C 148.912,46.4769 151.745,53.8102 160.5,58.5C 158.297,58.3964 156.297,57.7298 154.5,56.5C 153.167,55.1667 151.833,53.8333 150.5,52.5C 150.5,50.1667 150.5,47.8333 150.5,45.5C 150.5,43.8333 150.5,42.1667 150.5,40.5C 149.699,38.9582 149.366,37.2915 149.5,35.5C 150.833,35.5 152.167,35.5 153.5,35.5 Z"/></g>
<g><path style="opacity:1" fill="#0aaaeb" d="M 176.5,43.5 C 177.167,43.5 177.833,43.5 178.5,43.5C 178.5,44.5 178.5,45.5 178.5,46.5C 175.975,47.8916 173.808,47.5582 172,45.5C 171.502,42.5184 171.335,39.5184 171.5,36.5C 171.281,35.325 171.614,34.325 172.5,33.5C 174.213,34.8782 175.547,36.5448 176.5,38.5C 174.262,40.2585 173.262,42.5918 173.5,45.5C 175.179,45.7148 176.179,45.0481 176.5,43.5 Z"/></g>
<g><path style="opacity:1" fill="#06acee" d="M 33.5,39.5 C 34.4778,39.811 35.1445,40.4777 35.5,41.5C 33.9604,42.5321 33.4604,43.8654 34,45.5C 35.3561,44.6198 36.8561,44.2865 38.5,44.5C 38.7135,46.1439 38.3802,47.6439 37.5,49C 34.854,49.4974 32.1873,49.6641 29.5,49.5C 29.5,48.5 29.5,47.5 29.5,46.5C 27.4352,46.4828 25.4352,46.1495 23.5,45.5C 22.5084,45.6716 21.8417,45.3382 21.5,44.5C 24.8599,44.6159 28.1933,44.9492 31.5,45.5C 31.7036,43.3146 32.3702,41.3146 33.5,39.5 Z"/></g>
<g><path style="opacity:1" fill="#0fafec" d="M 70.5,42.5 C 72.1667,42.5 73.8333,42.5 75.5,42.5C 75.5198,44.143 74.8532,45.4763 73.5,46.5C 73.8333,46.8333 74.1667,47.1667 74.5,47.5C 75.8745,46.2887 77.3745,45.2887 79,44.5C 79.7648,44.5699 80.2648,44.9033 80.5,45.5C 78.2951,45.8459 78.1284,46.5126 80,47.5C 81.5671,46.1439 83.4004,45.4772 85.5,45.5C 86.1495,47.4352 86.4828,49.4352 86.5,51.5C 85.8333,51.8333 85.1667,52.1667 84.5,52.5C 83.1434,51.3146 81.6434,50.3146 80,49.5C 79.228,49.6448 78.5613,49.9781 78,50.5C 72.4616,48.596 66.6283,47.596 60.5,47.5C 60.1667,47.5 59.8333,47.5 59.5,47.5C 59.3284,46.5084 59.6618,45.8417 60.5,45.5C 64.444,46.9668 67.7773,45.9668 70.5,42.5 Z"/></g>
<g><path style="opacity:1" fill="#05acf0" d="M 141.5,37.5 C 141.5,37.1667 141.5,36.8333 141.5,36.5C 142.167,36.5 142.833,36.5 143.5,36.5C 144.868,38.5643 145.868,40.8976 146.5,43.5C 147.107,43.3764 147.44,43.0431 147.5,42.5C 148.222,41.4489 149.222,40.7822 150.5,40.5C 150.5,42.1667 150.5,43.8333 150.5,45.5C 148.83,45.7512 147.33,46.4178 146,47.5C 145.503,50.146 145.336,52.8127 145.5,55.5C 143.58,53.2536 142.247,50.5869 141.5,47.5C 141.5,47.1667 141.5,46.8333 141.5,46.5C 142.765,45.4855 143.431,43.9855 143.5,42C 143.431,40.0145 142.765,38.5145 141.5,37.5 Z"/></g>
<g><path style="opacity:1" fill="#19ace8" d="M 226.5,48.5 C 224.326,48.0798 222.326,48.0798 220.5,48.5C 219.167,49.5 219.167,50.5 220.5,51.5C 221.944,50.019 222.611,50.3523 222.5,52.5C 224.167,55.1667 225.833,57.8333 227.5,60.5C 222.46,56.461 218.127,51.7944 214.5,46.5C 215.423,43.7404 217.256,41.7404 220,40.5C 221.933,43.3704 224.099,46.0371 226.5,48.5 Z"/></g>
<g><path style="opacity:1" fill="#2aabdc" d="M 33.5,37.5 C 34.1667,37.8333 34.8333,38.1667 35.5,38.5C 35.9528,39.4584 36.6195,40.2917 37.5,41C 36.3909,42.813 37.0576,43.6463 39.5,43.5C 39.5,45.5 39.5,47.5 39.5,49.5C 38.1016,51.5328 36.1016,52.5328 33.5,52.5C 30.0306,51.48 26.5306,51.48 23,52.5C 20.1789,52.5922 17.6789,51.9256 15.5,50.5C 15.8417,49.6618 16.5084,49.3284 17.5,49.5C 20.5184,49.6646 23.5184,49.498 26.5,49C 25.2899,47.9609 24.2899,46.7942 23.5,45.5C 25.4352,46.1495 27.4352,46.4828 29.5,46.5C 29.5,47.5 29.5,48.5 29.5,49.5C 32.1873,49.6641 34.854,49.4974 37.5,49C 38.3802,47.6439 38.7135,46.1439 38.5,44.5C 36.8561,44.2865 35.3561,44.6198 34,45.5C 33.4604,43.8654 33.9604,42.5321 35.5,41.5C 35.1445,40.4777 34.4778,39.811 33.5,39.5C 33.5,38.8333 33.5,38.1667 33.5,37.5 Z"/></g>
<g><path style="opacity:1" fill="#05aded" d="M 125.5,42.5 C 125.5,44.1667 125.5,45.8333 125.5,47.5C 124.817,49.1765 123.483,49.8432 121.5,49.5C 121.946,52.0101 121.28,54.0101 119.5,55.5C 121.106,52.2471 120.773,49.2471 118.5,46.5C 120.862,45.1204 123.195,43.7871 125.5,42.5 Z"/></g>
<g><path style="opacity:1" fill="#04aaf1" d="M 141.5,46.5 C 141.5,46.8333 141.5,47.1667 141.5,47.5C 139.685,48.6298 137.685,49.2964 135.5,49.5C 135.167,49.5 134.833,49.5 134.5,49.5C 133.791,48.596 132.791,48.2627 131.5,48.5C 131.5,47.5 131.5,46.5 131.5,45.5C 131.5,44.5 131.5,43.5 131.5,42.5C 133.857,42.3367 136.19,42.5034 138.5,43C 137.207,43.49 135.873,43.6567 134.5,43.5C 134.5,44.8333 134.5,46.1667 134.5,47.5C 136.277,47.2137 137.944,46.5471 139.5,45.5C 140.416,45.5427 141.083,45.8761 141.5,46.5 Z"/></g>
<g><path style="opacity:1" fill="#02aded" d="M 150.5,45.5 C 150.5,47.8333 150.5,50.1667 150.5,52.5C 148.816,53.5272 147.149,54.5272 145.5,55.5C 145.336,52.8127 145.503,50.146 146,47.5C 147.33,46.4178 148.83,45.7512 150.5,45.5 Z"/></g>
<g><path style="opacity:1" fill="#03aeef" d="M 226.5,48.5 C 226.389,49.1174 226.056,49.6174 225.5,50C 227.247,50.3519 228.914,50.8519 230.5,51.5C 230.737,52.791 230.404,53.791 229.5,54.5C 227.299,53.4336 224.965,52.767 222.5,52.5C 222.611,50.3523 221.944,50.019 220.5,51.5C 219.167,50.5 219.167,49.5 220.5,48.5C 222.326,48.0798 224.326,48.0798 226.5,48.5 Z"/></g>
<g><path style="opacity:1" fill="#02acf1" d="M 131.5,45.5 C 131.5,46.5 131.5,47.5 131.5,48.5C 132.791,48.2627 133.791,48.596 134.5,49.5C 131,49.6101 127.666,50.4434 124.5,52C 123.663,53.0113 123.33,54.1779 123.5,55.5C 124.5,55.5 125.5,55.5 126.5,55.5C 126.5,56.1667 126.5,56.8333 126.5,57.5C 123.519,57.7289 120.686,59.0623 118,61.5C 117.536,60.9056 117.369,60.2389 117.5,59.5C 117.557,58.391 117.89,57.391 118.5,56.5C 119.167,56.5 119.5,56.1667 119.5,55.5C 121.28,54.0101 121.946,52.0101 121.5,49.5C 123.483,49.8432 124.817,49.1765 125.5,47.5C 127.282,46.2804 129.282,45.6138 131.5,45.5 Z"/></g>
<g><path style="opacity:1" fill="#07aced" d="M 141.5,47.5 C 142.247,50.5869 143.58,53.2536 145.5,55.5C 145.614,57.7179 146.28,59.7179 147.5,61.5C 145.023,62.12 145.023,63.12 147.5,64.5C 146.388,66.4192 145.054,68.0858 143.5,69.5C 142.127,69.6567 140.793,69.49 139.5,69C 140.84,66.8511 140.173,65.6845 137.5,65.5C 137.833,64.8333 138.167,64.1667 138.5,63.5C 138.833,62.8333 139.167,62.1667 139.5,61.5C 140.978,61.762 142.311,61.4287 143.5,60.5C 141.985,58.4527 141.151,56.1193 141,53.5C 139.5,51.5313 137.667,50.198 135.5,49.5C 137.685,49.2964 139.685,48.6298 141.5,47.5 Z"/></g>
<g><path style="opacity:1" fill="#29aee5" d="M 60.5,47.5 C 66.6283,47.596 72.4616,48.596 78,50.5C 78.5613,49.9781 79.228,49.6448 80,49.5C 81.6434,50.3146 83.1434,51.3146 84.5,52.5C 85.3591,54.1059 85.5258,55.7725 85,57.5C 86.1131,58.7111 87.2798,58.7111 88.5,57.5C 89.5223,57.8555 90.189,58.5222 90.5,59.5C 88.8333,59.5 87.1667,59.5 85.5,59.5C 82.0359,56.5375 78.7025,53.3709 75.5,50C 70.2339,49.9106 65.2339,49.0772 60.5,47.5 Z"/></g>
<g><path style="opacity:1" fill="#25b1e5" d="M 134.5,49.5 C 134.833,49.5 135.167,49.5 135.5,49.5C 137.667,50.198 139.5,51.5313 141,53.5C 141.151,56.1193 141.985,58.4527 143.5,60.5C 142.311,61.4287 140.978,61.762 139.5,61.5C 141.322,52.9929 137.989,49.9929 129.5,52.5C 128.5,52.5 127.5,52.5 126.5,52.5C 126.5,53.5 126.5,54.5 126.5,55.5C 125.5,55.5 124.5,55.5 123.5,55.5C 123.33,54.1779 123.663,53.0113 124.5,52C 127.666,50.4434 131,49.6101 134.5,49.5 Z"/></g>
<g><path style="opacity:1" fill="#15abea" d="M 222.5,52.5 C 224.965,52.767 227.299,53.4336 229.5,54.5C 228.342,55.9498 228.842,56.9498 231,57.5C 231.219,58.938 231.719,60.2713 232.5,61.5C 233.417,60.8728 234.417,60.5394 235.5,60.5C 238.768,60.6343 241.102,62.1343 242.5,65C 240.68,65.2004 239.347,66.0337 238.5,67.5C 237.833,67.5 237.167,67.5 236.5,67.5C 232.637,66.3064 229.637,63.973 227.5,60.5C 225.833,57.8333 224.167,55.1667 222.5,52.5 Z"/></g>
<g><path style="opacity:1" fill="#25ade2" d="M 85.5,45.5 C 90.6333,50.3071 96.3,54.3071 102.5,57.5C 102.5,58.1667 102.5,58.8333 102.5,59.5C 100.33,58.232 98.1632,58.232 96,59.5C 93.9045,58.2845 94.0712,57.4512 96.5,57C 94.9873,54.9774 93.6539,55.1441 92.5,57.5C 90.7299,56.1804 90.3966,54.6804 91.5,53C 89.7525,52.6481 88.0858,52.1481 86.5,51.5C 86.4828,49.4352 86.1495,47.4352 85.5,45.5 Z"/></g>
<g><path style="opacity:1" fill="#12aeeb" d="M 230.5,51.5 C 230.833,51.5 231.167,51.5 231.5,51.5C 233.167,52.5 234.5,53.8333 235.5,55.5C 235.782,56.7777 236.449,57.7777 237.5,58.5C 236.167,58.5 235.5,59.1667 235.5,60.5C 234.417,60.5394 233.417,60.8728 232.5,61.5C 231.719,60.2713 231.219,58.938 231,57.5C 228.842,56.9498 228.342,55.9498 229.5,54.5C 230.404,53.791 230.737,52.791 230.5,51.5 Z"/></g>
<g><path style="opacity:1" fill="#03abef" d="M 86.5,51.5 C 88.0858,52.1481 89.7525,52.6481 91.5,53C 90.3966,54.6804 90.7299,56.1804 92.5,57.5C 93.6539,55.1441 94.9873,54.9774 96.5,57C 94.0712,57.4512 93.9045,58.2845 96,59.5C 98.1632,58.232 100.33,58.232 102.5,59.5C 102.918,60.2216 103.584,60.7216 104.5,61C 102.68,61.2004 101.347,62.0337 100.5,63.5C 98.8868,63.0557 97.7202,62.0557 97,60.5C 94.5359,61.9091 92.3692,61.5757 90.5,59.5C 90.189,58.5222 89.5223,57.8555 88.5,57.5C 87.2798,58.7111 86.1131,58.7111 85,57.5C 85.5258,55.7725 85.3591,54.1059 84.5,52.5C 85.1667,52.1667 85.8333,51.8333 86.5,51.5 Z"/></g>
<g><path style="opacity:1" fill="#05adef" d="M 150.5,52.5 C 151.833,53.8333 153.167,55.1667 154.5,56.5C 154.703,58.3904 154.037,59.8904 152.5,61C 153.337,62.0113 153.67,63.1779 153.5,64.5C 150.68,64.913 148.68,63.913 147.5,61.5C 146.28,59.7179 145.614,57.7179 145.5,55.5C 147.149,54.5272 148.816,53.5272 150.5,52.5 Z"/></g>
<g><path style="opacity:1" fill="#04acf0" d="M 126.5,57.5 C 127.043,57.56 127.376,57.8933 127.5,58.5C 126.833,59.1667 126.167,59.8333 125.5,60.5C 127.082,62.0147 128.416,63.6814 129.5,65.5C 129.5,66.1667 129.5,66.8333 129.5,67.5C 127.847,67.3404 126.514,66.6737 125.5,65.5C 124.498,63.9891 123.831,62.3224 123.5,60.5C 119.487,60.5196 118.82,61.853 121.5,64.5C 120.009,65.2436 118.509,65.9103 117,66.5C 115.855,65.3636 114.688,64.3636 113.5,63.5C 113.5,62.1667 113.5,60.8333 113.5,59.5C 114.833,59.5 116.167,59.5 117.5,59.5C 117.369,60.2389 117.536,60.9056 118,61.5C 120.686,59.0623 123.519,57.7289 126.5,57.5 Z"/></g>
<g><path style="opacity:1" fill="#2fb0de" d="M 117.5,53.5 C 118.404,54.209 118.737,55.209 118.5,56.5C 117.89,57.391 117.557,58.391 117.5,59.5C 116.167,59.5 114.833,59.5 113.5,59.5C 113.5,60.8333 113.5,62.1667 113.5,63.5C 111.007,63.8693 110.34,63.2027 111.5,61.5C 109.012,59.6122 106.012,58.9455 102.5,59.5C 102.5,58.8333 102.5,58.1667 102.5,57.5C 107.167,58.8333 111.833,58.8333 116.5,57.5C 116.232,55.901 116.566,54.5676 117.5,53.5 Z"/></g>
<g><path style="opacity:0.741" fill="#2facdd" d="M 129.5,52.5 C 127.394,54.4065 127.394,56.5732 129.5,59C 128.249,62.697 129.749,64.5303 134,64.5C 135.533,64.2272 137.033,63.8938 138.5,63.5C 138.167,64.1667 137.833,64.8333 137.5,65.5C 134.771,66.5304 132.104,66.5304 129.5,65.5C 128.416,63.6814 127.082,62.0147 125.5,60.5C 126.167,59.8333 126.833,59.1667 127.5,58.5C 127.376,57.8933 127.043,57.56 126.5,57.5C 126.5,56.8333 126.5,56.1667 126.5,55.5C 126.5,54.5 126.5,53.5 126.5,52.5C 127.5,52.5 128.5,52.5 129.5,52.5 Z"/></g>
<g><path style="opacity:1" fill="#1eaee4" d="M 85.5,59.5 C 87.1667,59.5 88.8333,59.5 90.5,59.5C 92.3692,61.5757 94.5359,61.9091 97,60.5C 97.7202,62.0557 98.8868,63.0557 100.5,63.5C 99.0867,64.9348 97.42,65.9348 95.5,66.5C 91.4584,65.1486 88.1251,62.8152 85.5,59.5 Z"/></g>
<g><path style="opacity:1" fill="#06adea" d="M 125.5,65.5 C 124.549,66.9187 124.216,68.5853 124.5,70.5C 123.373,69.8783 122.373,69.045 121.5,68C 117.338,68.4056 113.338,68.2389 109.5,67.5C 110.478,67.189 111.145,66.5223 111.5,65.5C 110.335,64.4164 109.002,63.5831 107.5,63C 108.563,61.8118 109.897,61.3118 111.5,61.5C 110.34,63.2027 111.007,63.8693 113.5,63.5C 114.688,64.3636 115.855,65.3636 117,66.5C 118.509,65.9103 120.009,65.2436 121.5,64.5C 118.82,61.853 119.487,60.5196 123.5,60.5C 123.831,62.3224 124.498,63.9891 125.5,65.5 Z"/></g>
<g><path style="opacity:1" fill="#04abf0" d="M 176.5,65.5 C 174.473,65.3379 172.473,65.5045 170.5,66C 170.957,66.414 171.291,66.914 171.5,67.5C 169.579,68.641 167.579,68.8077 165.5,68C 166.833,67 166.833,66 165.5,65C 166.942,64.6232 167.942,63.7899 168.5,62.5C 169.097,61.8614 169.93,61.528 171,61.5C 172.8,62.3784 174.633,63.045 176.5,63.5C 176.5,61.8333 176.5,60.1667 176.5,58.5C 178.491,57.2123 180.158,57.7123 181.5,60C 180.35,62.3164 178.683,64.1498 176.5,65.5 Z"/></g>
<g><path style="opacity:1" fill="#2eaee2" d="M 235.5,55.5 C 242.546,61.1336 250.546,62.9669 259.5,61C 261.783,58.81 264.449,58.1433 267.5,59C 270.17,62.1615 269.837,64.9948 266.5,67.5C 266.318,65.4086 266.652,63.4086 267.5,61.5C 263.566,59.7576 261.899,61.091 262.5,65.5C 256.957,64.0962 251.29,63.2629 245.5,63C 242.848,61.401 240.182,59.901 237.5,58.5C 236.449,57.7777 235.782,56.7777 235.5,55.5 Z"/></g>
<g><path style="opacity:1" fill="#28aee3" d="M 154.5,56.5 C 156.297,57.7298 158.297,58.3964 160.5,58.5C 164.833,59.8333 169.167,59.8333 173.5,58.5C 174.5,58.5 175.5,58.5 176.5,58.5C 176.5,60.1667 176.5,61.8333 176.5,63.5C 174.633,63.045 172.8,62.3784 171,61.5C 169.93,61.528 169.097,61.8614 168.5,62.5C 164.412,60.7292 160.079,59.7292 155.5,59.5C 155.34,61.1992 155.506,62.8659 156,64.5C 159.757,63.0178 160.257,63.6845 157.5,66.5C 161.796,68.9585 166.463,69.9585 171.5,69.5C 164.275,70.9937 157.442,69.6603 151,65.5C 148.661,67.6694 146.161,69.6694 143.5,71.5C 143.5,70.8333 143.5,70.1667 143.5,69.5C 145.054,68.0858 146.388,66.4192 147.5,64.5C 145.023,63.12 145.023,62.12 147.5,61.5C 148.68,63.913 150.68,64.913 153.5,64.5C 153.67,63.1779 153.337,62.0113 152.5,61C 154.037,59.8904 154.703,58.3904 154.5,56.5 Z"/></g>
<g><path style="opacity:1" fill="#0aacee" d="M 168.5,62.5 C 167.942,63.7899 166.942,64.6232 165.5,65C 166.833,66 166.833,67 165.5,68C 167.579,68.8077 169.579,68.641 171.5,67.5C 171.291,66.914 170.957,66.414 170.5,66C 172.473,65.5045 174.473,65.3379 176.5,65.5C 174.703,66.393 173.37,67.7263 172.5,69.5C 172.167,69.5 171.833,69.5 171.5,69.5C 166.463,69.9585 161.796,68.9585 157.5,66.5C 160.257,63.6845 159.757,63.0178 156,64.5C 155.506,62.8659 155.34,61.1992 155.5,59.5C 160.079,59.7292 164.412,60.7292 168.5,62.5 Z"/></g>
<g><path style="opacity:1" fill="#10aced" d="M 237.5,58.5 C 240.182,59.901 242.848,61.401 245.5,63C 251.29,63.2629 256.957,64.0962 262.5,65.5C 261.899,61.091 263.566,59.7576 267.5,61.5C 266.652,63.4086 266.318,65.4086 266.5,67.5C 263.133,70.5064 259.133,71.8397 254.5,71.5C 249.578,68.9791 244.245,67.6458 238.5,67.5C 239.347,66.0337 240.68,65.2004 242.5,65C 241.102,62.1343 238.768,60.6343 235.5,60.5C 235.5,59.1667 236.167,58.5 237.5,58.5 Z"/></g>
<g><path style="opacity:1" fill="#0cacee" d="M 102.5,59.5 C 106.012,58.9455 109.012,59.6122 111.5,61.5C 109.897,61.3118 108.563,61.8118 107.5,63C 109.002,63.5831 110.335,64.4164 111.5,65.5C 111.145,66.5223 110.478,67.189 109.5,67.5C 105.559,68.5643 101.559,68.5643 97.5,67.5C 96.5084,67.6716 95.8417,67.3382 95.5,66.5C 97.42,65.9348 99.0867,64.9348 100.5,63.5C 101.347,62.0337 102.68,61.2004 104.5,61C 103.584,60.7216 102.918,60.2216 102.5,59.5 Z"/></g>
<g><path style="opacity:0.651" fill="#43afdb" d="M 97.5,67.5 C 101.559,68.5643 105.559,68.5643 109.5,67.5C 113.338,68.2389 117.338,68.4056 121.5,68C 122.373,69.045 123.373,69.8783 124.5,70.5C 124.5,70.8333 124.5,71.1667 124.5,71.5C 122.606,70.9524 120.94,69.9524 119.5,68.5C 111.916,71.3012 104.582,70.9679 97.5,67.5 Z"/></g>
<g><path style="opacity:1" fill="#05acef" d="M 129.5,65.5 C 132.104,66.5304 134.771,66.5304 137.5,65.5C 140.173,65.6845 140.84,66.8511 139.5,69C 140.793,69.49 142.127,69.6567 143.5,69.5C 143.5,70.1667 143.5,70.8333 143.5,71.5C 139.446,72.1845 135.446,72.1845 131.5,71.5C 132.246,70.2638 132.579,68.9305 132.5,67.5C 131.5,67.5 130.5,67.5 129.5,67.5C 129.5,66.8333 129.5,66.1667 129.5,65.5 Z"/></g>
<g><path style="opacity:0.686" fill="#36aedb" d="M 172.5,69.5 C 173.37,67.7263 174.703,66.393 176.5,65.5C 178.683,64.1498 180.35,62.3164 181.5,60C 180.158,57.7123 178.491,57.2123 176.5,58.5C 175.5,58.5 174.5,58.5 173.5,58.5C 180.761,53.5624 183.595,55.5624 182,64.5C 179.448,67.3593 176.281,69.026 172.5,69.5 Z"/></g>
<g><path style="opacity:1" fill="#2aade1" d="M 236.5,67.5 C 237.167,67.5 237.833,67.5 238.5,67.5C 244.245,67.6458 249.578,68.9791 254.5,71.5C 250.871,72.4874 247.204,72.3208 243.5,71C 240.719,70.4782 238.385,69.3115 236.5,67.5 Z"/></g>
<g><path style="opacity:1" fill="#25ace6" d="M 125.5,65.5 C 126.514,66.6737 127.847,67.3404 129.5,67.5C 130.5,67.5 131.5,67.5 132.5,67.5C 132.579,68.9305 132.246,70.2638 131.5,71.5C 135.446,72.1845 139.446,72.1845 143.5,71.5C 140.88,73.8946 137.713,74.8946 134,74.5C 130.287,74.8946 127.12,73.8946 124.5,71.5C 124.5,71.1667 124.5,70.8333 124.5,70.5C 124.216,68.5853 124.549,66.9187 125.5,65.5 Z"/></g>
</svg>
