<svg viewBox="0 0 24 25" fill="none" xmlns="http://www.w3.org/2000/svg">
<path d="M21 12.0579C21 11.5008 20.5498 11.0508 19.9925 11.0508L13.0111 11.0436L13.0111 4.05792C13.0111 3.50078 12.5609 3.05078 12.0036 3.05078C11.4462 3.05078 10.996 3.50078 10.996 4.05792V11.0436L4.00754 11.0436C3.45018 11.0436 3 11.4936 3 12.0508C3 12.6079 3.45018 13.0579 4.00754 13.0579H10.996L10.996 20.0436C10.996 20.6008 11.4462 21.0508 12.0036 21.0508C12.5609 21.0508 13.0111 20.6008 13.0111 20.0436V13.0579H19.9996C20.5427 13.0579 21 12.6008 21 12.0579Z" fill="currentColor"/>
</svg>
