<?xml version="1.0" standalone="no"?>
<!DOCTYPE svg PUBLIC "-//W3C//DTD SVG 20010904//EN"
 "http://www.w3.org/TR/2001/REC-SVG-20010904/DTD/svg10.dtd">
<svg version="1.0" xmlns="http://www.w3.org/2000/svg"
 width="151.000000pt" height="171.000000pt" viewBox="0 0 151.000000 171.000000"
 preserveAspectRatio="xMidYMid meet">

<g transform="translate(0.000000,171.000000) scale(0.100000,-0.100000)"
fill="#000000" stroke="none">
<path d="M583 1646 c-209 -48 -372 -212 -404 -406 -6 -36 -15 -83 -19 -105 -6
-25 -6 -41 0 -43 6 -2 10 -22 10 -44 0 -62 28 -155 70 -236 l38 -73 -21 -62
c-31 -94 -29 -339 2 -498 13 -64 31 -126 40 -137 16 -21 16 -21 56 -2 36 18
65 19 323 20 239 0 282 -2 282 -14 0 -25 16 -27 43 -6 22 17 41 20 141 20
l116 0 0 38 c-2 144 -48 334 -114 467 l-52 103 61 63 c132 140 208 374 175
541 -33 172 -173 307 -376 363 -83 23 -292 29 -371 11z m297 -30 c99 -18 176
-48 250 -98 118 -79 172 -183 171 -333 0 -204 -99 -397 -257 -506 -49 -34
-165 -89 -187 -89 -8 0 -31 25 -52 55 -86 126 -205 204 -324 213 -74 5 -108
-7 -150 -52 -14 -14 -28 -26 -33 -26 -9 0 -60 104 -72 146 -6 20 -2 22 54 26
80 6 103 28 102 95 0 31 5 54 15 66 20 21 10 35 -12 17 -10 -8 -52 -16 -101
-18 l-84 -5 0 49 c0 112 56 242 140 324 126 124 327 174 540 136z m-520 -570
c0 -54 -24 -76 -85 -76 -56 0 -67 11 -73 69 l-5 51 82 0 81 0 0 -44z m157
-227 c15 -6 38 -13 51 -14 48 -7 155 -97 213 -182 33 -47 34 -47 -57 -58 -115
-15 -265 39 -354 127 -41 41 -48 52 -40 68 13 25 60 61 71 54 5 -3 17 0 26 5
24 14 55 14 90 0z m-55 -235 c80 -41 163 -57 253 -51 44 3 88 9 97 12 11 4 20
0 27 -13 28 -52 -410 -452 -495 -452 -29 0 -31 3 -49 88 -37 178 -39 385 -4
501 l12 40 55 -50 c30 -27 77 -61 104 -75z m624 28 c20 -35 21 -44 13 -132
-14 -138 -46 -287 -76 -350 l-26 -55 -9 70 c-11 90 -41 212 -74 297 l-27 67
32 40 c25 32 113 94 141 100 3 0 15 -16 26 -37z m105 -260 c11 -42 23 -121 26
-175 l6 -97 -90 0 -91 0 24 65 c26 70 63 263 65 329 l1 41 19 -43 c11 -23 29
-77 40 -120z m-301 61 c26 -70 56 -197 66 -275 l6 -58 -263 0 c-144 0 -260 2
-258 4 2 2 38 29 79 60 76 57 248 221 302 289 16 20 33 37 38 37 5 0 18 -26
30 -57z"/>
<path d="M510 1142 c0 -5 7 -17 15 -28 8 -10 15 -32 15 -47 1 -80 72 -130 185
-131 117 -1 179 44 177 130 -1 68 1 68 -146 59 -175 -12 -207 -10 -218 9 -9
17 -28 22 -28 8z m370 -76 c0 -55 -31 -89 -97 -105 -109 -28 -223 28 -223 108
0 17 9 20 78 26 42 3 86 7 97 9 11 2 48 4 83 5 l62 1 0 -44z"/>
<path d="M606 1041 c-7 -11 18 -33 27 -24 4 3 7 12 7 20 0 15 -26 18 -34 4z"/>
<path d="M234 1049 c-8 -14 11 -33 25 -25 11 7 4 36 -9 36 -5 0 -12 -5 -16
-11z"/>
<path d="M440 750 c0 -5 24 -10 54 -10 30 0 58 5 61 10 4 6 -17 10 -54 10 -34
0 -61 -4 -61 -10z"/>
</g>
</svg>
