<?xml version="1.0" encoding="UTF-8"?>
<svg width="18" height="18" viewBox="0 0 18 18" fill="none" xmlns="http://www.w3.org/2000/svg">
    <symbol id="close_icon" viewBox="0 0 18 18" fill="none">
        <path d="M13.062 4.58334L13.0623 4.58298C13.1628 4.48245 13.3241 4.48245 13.4246 4.58298C13.5175 4.67593 13.5175 4.84474 13.4246 4.93769L9.71584 8.64645L9.36229 9L9.71584 9.35355L13.4246 13.0623C13.5251 13.1628 13.5251 13.3241 13.4246 13.4246C13.3241 13.5251 13.1628 13.5251 13.0623 13.4246L9.35355 9.71584L9 9.36229L8.64645 9.71584L4.93769 13.4246C4.83716 13.5251 4.67592 13.5251 4.5754 13.4246C4.47487 13.3241 4.47487 13.1628 4.5754 13.0623L8.28416 9.35355L8.63771 9L8.28416 8.64645L4.5754 4.93769C4.47487 4.83716 4.47487 4.67592 4.5754 4.5754C4.67592 4.47487 4.83716 4.47487 4.93769 4.5754L8.64645 8.28416L8.99964 8.63735L9.35319 8.28452L13.062 4.58334Z"
              stroke="currentColor"/>
    </symbol>
    <use href="#close_icon" x="0" y="0"/>
</svg>
