<svg xmlns="http://www.w3.org/2000/svg">
    <symbol id="chevron_down" viewBox="0 0 18 19" fill="none">
        <path d="M4 7.5L9 12.5L14 7.5" stroke="currentColor" stroke-width="1.5" stroke-linecap="round"
              stroke-linejoin="round"/>
    </symbol>
    <symbol id="hamburger_icon" viewBox="0 0 18 19" fill="none">
        <g clip-path="url(#clip0_1648_5374)">
            <path d="M0.888889 15.5H17.1111C17.6 15.5 18 15.125 18 14.6667C18 14.2083 17.6 13.8333 17.1111 13.8333H0.888889C0.4 13.8333 0 14.2083 0 14.6667C0 15.125 0.4 15.5 0.888889 15.5ZM0.888889 10.3331H17.1111C17.6 10.3331 18 9.95812 18 9.49978C18 9.04145 17.6 8.66645 17.1111 8.66645H0.888889C0.4 8.66645 0 9.04145 0 9.49978C0 9.95812 0.4 10.3331 0.888889 10.3331ZM0 4.33333C0 4.79167 0.4 5.16667 0.888889 5.16667H17.1111C17.6 5.16667 18 4.79167 18 4.33333C18 3.875 17.6 3.5 17.1111 3.5H0.888889C0.4 3.5 0 3.875 0 4.33333Z"
                  fill="currentColor"/>
        </g>
        <defs>
            <clipPath id="clip0_1648_5374">
                <rect width="18" height="18" fill="white" transform="translate(0 0.5)"/>
            </clipPath>
        </defs>
    </symbol>
    <symbol id="search_icon" viewBox="0 0 18 19" fill="none">
        <path d="M12.0962 3.40381C14.6346 5.94221 14.6346 10.0578 12.0962 12.5962C9.55779 15.1346 5.44221 15.1346 2.90381 12.5962C0.365398 10.0578 0.365398 5.94221 2.90381 3.40381C5.44221 0.865398 9.55779 0.865398 12.0962 3.40381Z"
              stroke="currentColor" stroke-width="1.5" stroke-linecap="round" stroke-linejoin="round"/>
        <path d="M12.5 13L16.5 17" stroke="currentColor" stroke-width="1.5" stroke-linecap="round"
              stroke-linejoin="round"/>
    </symbol>
    <symbol id="close_icon" viewBox="0 0 18 18" fill="none">
        <path d="M13.062 4.58334L13.0623 4.58298C13.1628 4.48245 13.3241 4.48245 13.4246 4.58298C13.5175 4.67593 13.5175 4.84474 13.4246 4.93769L9.71584 8.64645L9.36229 9L9.71584 9.35355L13.4246 13.0623C13.5251 13.1628 13.5251 13.3241 13.4246 13.4246C13.3241 13.5251 13.1628 13.5251 13.0623 13.4246L9.35355 9.71584L9 9.36229L8.64645 9.71584L4.93769 13.4246C4.83716 13.5251 4.67592 13.5251 4.5754 13.4246C4.47487 13.3241 4.47487 13.1628 4.5754 13.0623L8.28416 9.35355L8.63771 9L8.28416 8.64645L4.5754 4.93769C4.47487 4.83716 4.47487 4.67592 4.5754 4.5754C4.67592 4.47487 4.83716 4.47487 4.93769 4.5754L8.64645 8.28416L8.99964 8.63735L9.35319 8.28452L13.062 4.58334Z"
              stroke="currentColor"/>
    </symbol>
    <symbol id="vk_icon" viewBox="0 0 32 32">
        <path fill-rule="evenodd" clip-rule="evenodd"
              d="M7.12207 10.5941C7.27096 17.2252 10.8443 21.2101 17.1093 21.2101H17.4644V17.4164C19.7666 17.6289 21.5073 19.191 22.2059 21.2101H25.4588C24.5654 18.1921 22.2174 16.5237 20.7514 15.8861C22.2174 15.0998 24.279 13.187 24.7715 10.5941H21.8165C21.1751 12.6982 19.2741 14.6109 17.4644 14.7916V10.5941H14.5094V17.9477C12.6769 17.5227 10.3633 15.4611 10.2603 10.5941H7.12207Z"
              fill="currentColor"/>
    </symbol>
    <symbol id="fb_icon" viewBox="0 0 32 32">
        <path d="M19.9155 17.0417L20.3714 14.1448H17.5628V12.2619C17.5628 11.4697 17.9549 10.6957 19.2088 10.6957H20.5036V8.22887C19.7496 8.10863 18.9876 8.04357 18.2239 8.03424C15.9123 8.03424 14.4032 9.42383 14.4032 11.936V14.1448H11.8408V17.0417H14.4032V24.0485H17.5628V17.0417H19.9155Z"
              fill="currentColor"/>
    </symbol>
    <symbol id="ok_icon" viewBox="0 0 32 32">
        <path fill-rule="evenodd" clip-rule="evenodd"
              d="M17.7612 12.1291C17.7612 11.1864 16.9668 10.4198 15.9902 10.4198C15.0143 10.4198 14.2192 11.1864 14.2192 12.1291C14.2192 13.0711 15.0143 13.8381 15.9902 13.8381C16.9668 13.8381 17.7612 13.0711 17.7612 12.1291ZM20.2679 12.1291C20.2679 14.4053 18.35 16.2569 15.9906 16.2569C13.6317 16.2569 11.7133 14.4053 11.7133 12.1291C11.7133 9.85207 13.6317 8 15.9906 8C18.35 8 20.2679 9.85207 20.2679 12.1291ZM20.2156 18.634C19.4422 19.1029 18.6025 19.4354 17.7318 19.6269L20.1229 21.9352C20.6128 22.4071 20.6128 23.1734 20.1229 23.6457C19.6336 24.1181 18.8405 24.1181 18.3517 23.6457L16.0007 21.3774L13.6518 23.6457C13.4069 23.8817 13.086 23.9997 12.7651 23.9997C12.4446 23.9997 12.1242 23.8817 11.8793 23.6457C11.39 23.1734 11.39 22.4076 11.8788 21.9352L14.2702 19.6269C13.3995 19.4354 12.5598 19.1024 11.7864 18.634C11.2011 18.2778 11.0253 17.5315 11.3941 16.966C11.7618 16.3998 12.5352 16.2293 13.1216 16.5855C14.8726 17.6488 17.1283 17.649 18.8804 16.5855C19.4667 16.2293 20.2399 16.3998 20.6084 16.966C20.9772 17.531 20.8009 18.2778 20.2156 18.634Z"
              fill="currentColor"/>
    </symbol>
    <symbol id="tg_icon" viewBox="0 0 32 32">
        <path d="M8.90246 15.4332C8.90246 15.4332 15.4128 12.6912 17.6706 11.7256C18.5362 11.3394 21.4715 10.1036 21.4715 10.1036C21.4715 10.1036 22.8262 9.56289 22.7133 10.876C22.6757 11.4167 22.3746 13.3091 22.0736 15.3559C21.622 18.2525 21.1328 21.4194 21.1328 21.4194C21.1328 21.4194 21.0575 22.3077 20.4178 22.4621C19.7781 22.6166 18.7243 21.9215 18.5362 21.767C18.3856 21.6511 15.7138 19.9132 14.7354 19.0635C14.4719 18.8318 14.1709 18.3684 14.773 17.8277C16.1278 16.5532 17.7459 14.9698 18.7243 13.9656C19.1759 13.5022 19.6275 12.4208 17.7459 13.7339C15.0741 15.6263 12.4398 17.4029 12.4398 17.4029C12.4398 17.4029 11.8377 17.789 10.7088 17.4414C9.57979 17.0939 8.26268 16.6304 8.26268 16.6304C8.26268 16.6304 7.35957 16.0511 8.90246 15.4332Z"
              fill="currentColor"/>
    </symbol>
    <symbol id="chevron_left" viewBox="0 0 18 18" width="18" height="18" fill="none">
        <path d="M11 4L6 9L11 14" stroke="currentColor" stroke-width="1.5" stroke-linecap="round"
              stroke-linejoin="round"/>
    </symbol>
    <symbol id="chevron_right" width="18" height="18" viewBox="0 0 18 18" fill="none">
        <path d="M7 14L12 9L7 4" stroke="currentColor" stroke-width="1.5" stroke-linecap="round"
              stroke-linejoin="round"/>
    </symbol>
    <symbol id="no_img_icon" viewBox="0 0 32 32" fill="none">
        <path d="M4 9.33333V9.33333C4 6.38781 6.38781 4 9.33333 4H22.6667V4C25.6122 4 28 6.38781 28 9.33333V22.6667C28 25.6122 25.6122 28 22.6667 28H9.33333H9.33333C6.38781 28 4 25.6122 4 22.6667L4 9.33333Z"
              stroke="currentColor" stroke-width="1.5" stroke-linecap="round" stroke-linejoin="round"/>
        <path d="M28 17.1653L25.9303 14.8535C24.9111 13.7155 23.2591 13.7155 22.2399 14.8535L16.8155 20.9125C16.5014 21.2633 15.9871 21.2885 15.6447 20.9698L13.4771 18.9522C12.8276 18.3476 11.8615 18.3577 11.2231 18.9758L5 25"
              stroke="currentColor" stroke-width="1.5" stroke-linecap="round" stroke-linejoin="round"/>
        <path d="M10 12C11.1046 12 12 11.1046 12 10C12 8.89543 11.1046 8 10 8C8.89543 8 8 8.89543 8 10C8 11.1046 8.89543 12 10 12Z"
              stroke="currentColor" stroke-width="1.5" stroke-linecap="round" stroke-linejoin="round"/>
    </symbol>
    <symbol id="folder_icon" viewBox="0 0 18 18" fill="none">
        <path d="M15.6667 8.39267V6.44967C15.6667 6.00765 15.4911 5.58372 15.1785 5.27116C14.866 4.9586 14.442 4.78301 14 4.78301H9.44095C9.30509 4.78301 9.17129 4.74979 9.05121 4.68625C8.93112 4.62271 8.82839 4.53077 8.75197 4.41845L7.58113 2.69757C7.50471 2.58524 7.40197 2.4933 7.28188 2.42976C7.16179 2.36622 7.02798 2.333 6.89212 2.33301H3.16667C2.72464 2.33301 2.30072 2.5086 1.98816 2.82116C1.67559 3.13372 1.5 3.55765 1.5 3.99967V14.4163C1.5 14.7479 1.6317 15.0658 1.86612 15.3002C2.10054 15.5346 2.41848 15.6663 2.75 15.6663M2.75 15.6663C3.08152 15.6663 3.39946 15.5346 3.63388 15.3002C3.8683 15.0658 4 14.7479 4 14.4163V9.83301C4 9.39098 4.17559 8.96706 4.48816 8.6545C4.80072 8.34194 5.22464 8.16634 5.66667 8.16634H14.8333C15.2754 8.16634 15.6993 8.34194 16.0118 8.6545C16.3244 8.96706 16.5 9.39098 16.5 9.83301V13.9997C16.5 14.4417 16.3244 14.8656 16.0118 15.1782C15.6993 15.4907 15.2754 15.6663 14.8333 15.6663H2.75Z"
              stroke="currentColor" stroke-width="1.5" stroke-linecap="round"></path>
    </symbol>
    <symbol id="eye_icon" viewBox="0 0 18 18" fill="none">
        <path d="M10.7674 7.23312C11.7433 8.20896 11.7433 9.79312 10.7674 10.7706C9.79159 11.7465 8.20742 11.7465 7.22992 10.7706C6.25409 9.79479 6.25409 8.21062 7.22992 7.23312C8.20742 6.25563 9.79076 6.25563 10.7674 7.23312Z"
              stroke="currentColor" stroke-width="1.5" stroke-linecap="round"/>
        <path d="M1 9C1 8.43514 1.13511 7.87629 1.39644 7.36114C2.74311 4.70657 5.71911 3 9 3C12.2809 3 15.2569 4.70657 16.6036 7.36114C16.8649 7.87629 17 8.43514 17 9C17 9.56486 16.8649 10.1237 16.6036 10.6389C15.2569 13.2934 12.2809 15 9 15C5.71911 15 2.74311 13.2934 1.39644 10.6389C1.13511 10.1237 1 9.56486 1 9Z"
              stroke="currentColor" stroke-width="1.5" stroke-linecap="round"/>
    </symbol>
    <symbol id="person_icon" fill="currentColor" viewBox="0 0 16 16">
        <path d="M8 8a3 3 0 1 0 0-6 3 3 0 0 0 0 6m2-3a2 2 0 1 1-4 0 2 2 0 0 1 4 0m4 8c0 1-1 1-1 1H3s-1 0-1-1 1-4 6-4 6 3 6 4m-1-.004c-.001-.246-.154-.986-.832-1.664C11.516 10.68 10.289 10 8 10s-3.516.68-4.168 1.332c-.678.678-.83 1.418-.832 1.664z"/>
    </symbol>
    <symbol id="calendar_icon" viewBox="0 0 18 18" fill="none" stroke="currentColor">
        <path d="M5.625 2.25V4.5" stroke-width="1.5" stroke-linecap="round" stroke-linejoin="round"/>
        <path d="M12.375 2.25V4.5" stroke-width="1.5" stroke-linecap="round" stroke-linejoin="round"/>
        <path d="M15.75 7.5H2.25" stroke-width="1.5" stroke-linecap="round" stroke-linejoin="round"/>
        <path d="M13.5 3.375H4.5C3.25736 3.375 2.25 4.38236 2.25 5.625V13.5C2.25 14.7426 3.25736 15.75 4.5 15.75H13.5C14.7426 15.75 15.75 14.7426 15.75 13.5V5.625C15.75 4.38236 14.7426 3.375 13.5 3.375Z"
              stroke-width="1.5" stroke-linecap="round" stroke-linejoin="round"/>
    </symbol>
    <symbol id="comments_icon" viewBox="0 0 18 18" fill="none" stroke="currentColor">
        <path d="M16 4.33344C16 3.71457 15.7542 3.12105 15.3166 2.68345C14.879 2.24584 14.2855 2 13.6667 2H4.33333C3.71449 2 3.121 2.24584 2.68342 2.68345C2.24583 3.12105 2 3.71457 2 4.33344V15.6111C2 15.6805 2.01858 15.7487 2.05381 15.8085C2.08905 15.8683 2.13965 15.9176 2.20037 15.9512C2.26108 15.9849 2.3297 16.0017 2.3991 15.9999C2.46849 15.998 2.53613 15.9777 2.595 15.9409L4.98831 14.445H13.6667C14.2855 14.445 14.879 14.1991 15.3166 13.7615C15.7542 13.3239 16 12.7304 16 12.1116V4.33344Z"
              stroke-width="1.5" stroke-linecap="round" stroke-linejoin="round"/>
    </symbol>
    <symbol id="author_sign_icon" viewBox="0 0 16 16" fill="currentColor">
        <path d="M15.807.531c-.174-.177-.41-.289-.64-.363a3.8 3.8 0 0 0-.833-.15c-.62-.049-1.394 0-2.252.175C10.365.545 8.264 1.415 6.315 3.1S3.147 6.824 2.557 8.523c-.294.847-.44 1.634-.429 2.268.005.316.05.62.154.88q.025.061.056.122A68 68 0 0 0 .08 15.198a.53.53 0 0 0 .157.72.504.504 0 0 0 .705-.16 68 68 0 0 1 2.158-3.26c.285.141.616.195.958.182.513-.02 1.098-.188 1.723-.49 1.25-.605 2.744-1.787 4.303-3.642l1.518-1.55a.53.53 0 0 0 0-.739l-.729-.744 1.311.209a.5.5 0 0 0 .443-.15l.663-.684c.663-.68 1.292-1.325 1.763-1.892.314-.378.585-.752.754-1.107.163-.345.278-.773.112-1.188a.5.5 0 0 0-.112-.172M3.733 11.62C5.385 9.374 7.24 7.215 9.309 5.394l1.21 1.234-1.171 1.196-.027.03c-1.5 1.789-2.891 2.867-3.977 3.393-.544.263-.99.378-1.324.39a1.3 1.3 0 0 1-.287-.018Zm6.769-7.22c1.31-1.028 2.7-1.914 4.172-2.6a7 7 0 0 1-.4.523c-.442.533-1.028 1.134-1.681 1.804l-.51.524zm3.346-3.357C9.594 3.147 6.045 6.8 3.149 10.678c.007-.464.121-1.086.37-1.806.533-1.535 1.65-3.415 3.455-4.976 1.807-1.561 3.746-2.36 5.31-2.68a8 8 0 0 1 1.564-.173"/>
    </symbol>
    <symbol id="loads_icon" viewBox="0 0 18 18" fill="none" stroke="currentColor">
        <path d="M10.7716 13.3847L9.55747 14.5989C9.14173 15.0149 8.64808 15.345 8.10472 15.5701C7.56137 15.7953 6.97897 15.9112 6.3908 15.9112C5.80264 15.9112 5.22023 15.7953 4.67688 15.5701C4.13353 15.345 3.63988 15.0149 3.22413 14.5989C2.80818 14.1831 2.47822 13.6894 2.2531 13.146C2.02798 12.6027 1.91211 12.0203 1.91211 11.4322C1.91211 10.8441 2.02798 10.2617 2.2531 9.71833C2.47822 9.17499 2.80818 8.68132 3.22413 8.26552L4.44164 7.05469"
              stroke-width="1.5" stroke-linecap="round"></path>
        <path d="M6.41211 11.4143L11.5871 6.23926" stroke-width="1.5" stroke-linecap="round"></path>
        <path d="M7.22852 4.26844L8.44268 3.05427C8.85831 2.63802 9.35193 2.3078 9.8953 2.08249C10.4387 1.85718 11.0211 1.74121 11.6093 1.74121C12.1976 1.74121 12.78 1.85718 13.3234 2.08249C13.8668 2.3078 14.3604 2.63802 14.776 3.05427C15.1921 3.47001 15.5221 3.96367 15.7473 4.50702C15.9725 5.05037 16.0884 5.63277 16.0884 6.22094C16.0884 6.80911 15.9725 7.39151 15.7473 7.93486C15.5221 8.47821 15.1921 8.97187 14.776 9.38761L13.5585 10.5984"
              stroke-width="1.5" stroke-linecap="round"></path>
    </symbol>
    <symbol id="star_icon" viewBox="0 0 18 18" fill="none" stroke="currentColor">
        <path d="M9 13.5603L3.82578 16L4.90044 10.6L1 6.64L6.49244 5.95971L9 1L11.5076 5.95971L17 6.64L13.0996 10.6L14.1742 16L9 13.5603Z"
              stroke-width="1.5" stroke-linecap="round" stroke-linejoin="round"/>
    </symbol>
    <symbol id="chevron_double_right_icon" fill="currentColor" viewBox="0 0 16 16">
        <path fill-rule="evenodd"
              d="M3.646 1.646a.5.5 0 0 1 .708 0l6 6a.5.5 0 0 1 0 .708l-6 6a.5.5 0 0 1-.708-.708L9.293 8 3.646 2.354a.5.5 0 0 1 0-.708"/>
        <path fill-rule="evenodd"
              d="M7.646 1.646a.5.5 0 0 1 .708 0l6 6a.5.5 0 0 1 0 .708l-6 6a.5.5 0 0 1-.708-.708L13.293 8 7.646 2.354a.5.5 0 0 1 0-.708"/>
    </symbol>
    <symbol id="like_icon" viewBox="0 0 18 18" fill="none">

        <path d="M4.78732 14.8337H3.21398C2.72815 14.8337 2.33398 14.4395 2.33398 13.9537V7.79699C2.33398 7.31116 2.72815 6.91699 3.21398 6.91699H4.78732C5.27315 6.91699 5.66732 7.31116 5.66732 7.79699V13.9537C5.66732 14.4395 5.27315 14.8337 4.78732 14.8337Z"
              stroke="currentColor" stroke-width="1.5" stroke-linecap="round"/>
        <path d="M5.66602 7.8103L8.70685 3.85113C9.27268 3.11363 10.3777 3.0953 10.9685 3.8128C11.1893 4.0803 11.3093 4.41696 11.3093 4.76363V7.48946H13.8893C14.3902 7.48946 14.8577 7.73946 15.136 8.1553L15.4102 8.56446C15.656 8.93196 15.7277 9.38946 15.6052 9.81363L14.4727 13.7486C14.2877 14.3911 13.7002 14.8336 13.0318 14.8336H7.79102C7.37435 14.8336 6.97602 14.6603 6.69268 14.3553L5.66602 13.2503"
              stroke="currentColor" stroke-width="1.5" stroke-linecap="round"/>
    </symbol>
    <symbol id="dislike_icon" viewBox="0 0 18 18" fill="none">
        <path d="M4.78732 3.28548L3.21398 3.28548C2.72815 3.28548 2.33398 3.67965 2.33398 4.16548L2.33398 10.3221C2.33398 10.808 2.72815 11.2021 3.21398 11.2021L4.78732 11.2021C5.27315 11.2021 5.66732 10.808 5.66732 10.3221L5.66732 4.16548C5.66732 3.67965 5.27315 3.28548 4.78732 3.28548Z"
              stroke="currentColor" stroke-width="1.5" stroke-linecap="round"/>
        <path d="M5.66602 10.3088L8.70685 14.268C9.27268 15.0055 10.3777 15.0238 10.9685 14.3063C11.1893 14.0388 11.3093 13.7022 11.3093 13.3555L11.3093 10.6297L13.8893 10.6297C14.3902 10.6297 14.8577 10.3797 15.136 9.96384L15.4102 9.55468C15.656 9.18718 15.7277 8.72968 15.6052 8.30551L14.4727 4.37051C14.2877 3.72801 13.7002 3.28551 13.0318 3.28551L7.79101 3.28551C7.37435 3.28551 6.97601 3.45884 6.69268 3.76384L5.66601 4.86884"
              stroke="currentColor" stroke-width="1.5" stroke-linecap="round"/>
    </symbol>
    <symbol id="social_u_icon" viewBox="0 0 24 24" fill="none">
        <path d="M12 24C10.6736 24 9.40956 23.7983 8.2079 23.395C7.01039 22.9917 5.9106 22.422 4.90852 21.6861C3.9106 20.9543 3.04366 20.0873 2.30769 19.0852C1.57588 18.0873 1.00832 16.9896 0.60499 15.7921C0.201663 14.5904 0 13.3264 0 12C0 10.6736 0.201663 9.41164 0.60499 8.21414C1.00832 7.01247 1.57588 5.91268 2.30769 4.91476C3.04366 3.91268 3.9106 3.04574 4.90852 2.31393C5.9106 1.57796 7.01039 1.00832 8.2079 0.604989C9.40956 0.201663 10.6736 0 12 0C13.3264 0 14.5884 0.201663 15.7859 0.604989C16.9875 1.00832 18.0873 1.57796 19.0852 2.31393C20.0873 3.04574 20.9543 3.91268 21.6861 4.91476C22.422 5.91268 22.9917 7.01247 23.395 8.21414C23.7983 9.41164 24 10.6736 24 12C24 13.3264 23.7983 14.5904 23.395 15.7921C22.9917 16.9896 22.422 18.0873 21.6861 19.0852C20.9543 20.0873 20.0873 20.9543 19.0852 21.6861C18.0873 22.422 16.9875 22.9917 15.7859 23.395C14.5884 23.7983 13.3264 24 12 24Z"
              fill="#498BFA"/>
        <path d="M16.5 6.75H13.6697V13.1554C13.6697 13.4764 13.5984 13.7635 13.4559 14.0169C13.3133 14.2669 13.1165 14.4628 12.8654 14.6047C12.6143 14.7466 12.3258 14.8176 12 14.8176C11.6776 14.8176 11.3891 14.7466 11.1346 14.6047C10.8835 14.4628 10.6867 14.2669 10.5441 14.0169C10.4016 13.7635 10.3303 13.4764 10.3303 13.1554V6.75H7.5V13.3986C7.5 14.1892 7.68665 14.8733 8.05995 15.451C8.43665 16.0253 8.96267 16.4696 9.63801 16.7838C10.3133 17.0946 11.1007 17.25 12 17.25C12.8925 17.25 13.6765 17.0946 14.3518 16.7838C15.0271 16.4696 15.5532 16.0253 15.9299 15.451C16.31 14.8733 16.5 14.1892 16.5 13.3986V6.75Z"
              fill="white"/>
    </symbol>
    <symbol id="social_ya_icon" viewBox="0 0 24 24" fill="none">
        <path d="M0 12C0 5.3724 5.3712 0 12 0C18.6264 0 24 5.3724 24 12C24 18.6276 18.6264 24 12 24C5.3712 24 0 18.6276 0 12Z"
              fill="#FC3F1D"></path>
        <path d="M13.5898 7.07515H12.6247C10.8552 7.07515 9.92444 8.05024 9.92444 9.48786C9.92444 11.113 10.5679 11.8744 11.8893 12.8506L12.9809 13.6507L9.84401 18.75H7.5L10.3151 14.1883C8.69603 12.9256 7.78726 11.6994 7.78726 9.62537C7.78726 7.02515 9.45334 5.25 12.6132 5.25H15.75V18.7375H13.5898V7.07515Z"
              fill="white"></path>
    </symbol>
    <symbol id="social_vk_icon" viewBox="0 0 24 24" fill="none">
        <rect width="24" height="24" rx="12" fill="#2D77F7"/>
        <path fill-rule="evenodd" clip-rule="evenodd"
              d="M5.3418 7.94531C5.45347 12.9186 8.13349 15.9073 12.8322 15.9073H13.0986V13.062C14.8252 13.2214 16.1307 14.393 16.6547 15.9073H19.0943C18.4243 13.6438 16.6633 12.3925 15.5638 11.9143C16.6633 11.3246 18.2095 9.88999 18.5788 7.94531H16.3626C15.8816 9.52337 14.4558 10.9579 13.0986 11.0934V7.94531H10.8823V13.4605C9.50789 13.1417 7.77276 11.5956 7.69545 7.94531H5.3418Z"
              fill="white"/>
    </symbol>
    <symbol id="social_g_icon" viewBox="0 0 24 24" fill="none">
        <path fill-rule="evenodd" clip-rule="evenodd"
              d="M0 12C0 5.37258 5.37258 0 12 0C18.6274 0 24 5.37258 24 12C24 18.6274 18.6274 24 12 24C5.37258 24 0 18.6274 0 12Z"
              fill="#F5F5F6"/>
        <path d="M20.053 12.1545C20.053 11.4785 19.9981 10.9852 19.8794 10.4736H12.1602V13.5247H16.6912C16.5999 14.283 16.1066 15.4249 15.0103 16.1922L14.9949 16.2944L17.4356 18.1851L17.6047 18.202C19.1577 16.7678 20.053 14.6575 20.053 12.1545Z"
              fill="#4285F4"/>
        <path d="M12.1601 20.1937C14.38 20.1937 16.2435 19.4629 17.6047 18.2023L15.0103 16.1925C14.316 16.6767 13.3842 17.0147 12.1601 17.0147C9.98598 17.0147 8.14068 15.5805 7.48289 13.5981L7.38647 13.6063L4.84862 15.5704L4.81543 15.6627C6.16742 18.3484 8.94452 20.1937 12.1601 20.1937Z"
              fill="#34A853"/>
        <path d="M7.48387 13.5979C7.3103 13.0864 7.20985 12.5382 7.20985 11.9718C7.20985 11.4054 7.3103 10.8573 7.47474 10.3458L7.47014 10.2368L4.90048 8.24121L4.81641 8.2812C4.25919 9.39571 3.93945 10.6473 3.93945 11.9718C3.93945 13.2964 4.25919 14.5479 4.81641 15.6624L7.48387 13.5979Z"
              fill="#FBBC05"/>
        <path d="M12.1601 6.92902C13.704 6.92902 14.7453 7.59589 15.3392 8.15317L17.6595 5.88763C16.2344 4.56303 14.38 3.75 12.1601 3.75C8.94452 3.75 6.16742 5.59529 4.81543 8.28101L7.47376 10.3456C8.14068 8.36326 9.98598 6.92902 12.1601 6.92902Z"
              fill="#EB4335"/>
    </symbol>
    <symbol id="arrow_up_icon" fill="currentColor" class="bi bi-arrow-up" viewBox="0 0 16 16">
        <path fill-rule="evenodd" d="M8 15a.5.5 0 0 0 .5-.5V2.707l3.146 3.147a.5.5 0 0 0 .708-.708l-4-4a.5.5 0 0 0-.708 0l-4 4a.5.5 0 1 0 .708.708L7.5 2.707V14.5a.5.5 0 0 0 .5.5"/>
    </symbol>
    <symbol id="call_icon" viewBox="0 0 24 24" fill="none">
        <path d="M18.9645 16.61L17.7915 15.437C17.2055 14.851 16.2555 14.851 15.6705 15.437L14.7485 16.359C14.5425 16.565 14.2305 16.634 13.9645 16.517C12.6285 15.932 11.3085 15.045 10.1315 13.868C8.95954 12.696 8.07554 11.382 7.48954 10.051C7.36754 9.77597 7.43854 9.45297 7.65154 9.23997L8.47754 8.41397C9.14854 7.74297 9.14854 6.79397 8.56254 6.20797L7.38954 5.03497C6.60854 4.25397 5.34254 4.25397 4.56154 5.03497L3.90954 5.68597C3.16854 6.42697 2.85954 7.49597 3.05954 8.55597C3.55354 11.169 5.07154 14.03 7.52054 16.479C9.96954 18.928 12.8305 20.446 15.4435 20.94C16.5035 21.14 17.5725 20.831 18.3135 20.09L18.9645 19.439C19.7455 18.658 19.7455 17.392 18.9645 16.61Z" stroke="currentColor" stroke-width="2" stroke-linecap="round"/>
        <path d="M13 6.99061C14.031 6.97661 15.067 7.35861 15.854 8.14561" stroke="currentColor" stroke-width="2" stroke-linecap="round"/>
        <path d="M18.682 5.31787C17.113 3.74887 15.056 2.96387 13 2.96387" stroke="currentColor" stroke-width="2" stroke-linecap="round"/>
        <path d="M17.0085 10.9995C17.0225 9.96851 16.6405 8.93251 15.8535 8.14551" stroke="currentColor" stroke-width="2" stroke-linecap="round"/>
        <path d="M18.6816 5.31738C20.2506 6.88638 21.0356 8.94338 21.0356 10.9994" stroke="currentColor" stroke-width="2" stroke-linecap="round"/>
    </symbol>
    <symbol id="letter_icon" fill="none" viewBox="0 0 24 24">
        <path d="M16.4444 2H7.55556C4.48731 2 2 4.48731 2 7.55556V16.4444C2 19.5127 4.48731 22 7.55556 22H16.4444C19.5127 22 22 19.5127 22 16.4444V7.55556C22 4.48731 19.5127 2 16.4444 2Z" stroke="currentColor" stroke-width="2" stroke-linecap="round"/>
        <path d="M17 9L14.1633 11.2445C13.5444 11.7342 12.7833 12 12 12C11.2167 12 10.4556 11.7342 9.83672 11.2445L7 9" stroke="currentColor" stroke-width="2" stroke-linecap="round"/>
    </symbol>
    <symbol id="travel_icon" viewBox="0 0 24 24" fill="none">
        <path d="M20 9.96785C20 5.56776 16.4182 2 12 2C7.58175 2 4 5.56776 4 9.96785C4 14.6187 8.84475 19.6142 10.9938 21.6019C11.569 22.1327 12.431 22.1327 13.0062 21.6019C15.1552 19.6142 20 14.6187 20 9.96785Z" stroke="currentColor" stroke-width="2" stroke-linecap="round"/>
        <path d="M14.1213 7.87868C15.2929 9.05026 15.2929 10.9498 14.1213 12.1213C12.9497 13.2929 11.0503 13.2929 9.87868 12.1213C8.70711 10.9497 8.70711 9.05024 9.87868 7.87868C11.0503 6.70711 12.9497 6.70711 14.1213 7.87868Z" stroke="currentColor" stroke-width="2" stroke-linecap="round"/>
    </symbol>
    <symbol id="delivery_icon" fill="none">
        <path fill-rule="evenodd" clip-rule="evenodd" d="M2 16.4083V7.59062C2 6.81053 2.42333 6.09046 3.11111 5.70096L10.8889 1.29212C11.5767 0.902626 12.4233 0.902626 13.1111 1.29212L20.8889 5.70096C21.5767 6.09046 22 6.81162 22 7.59062V16.4094C22 17.1895 21.5767 17.9095 20.8889 18.299L13.1111 22.7079C12.4233 23.0974 11.5767 23.0974 10.8889 22.7079L3.11111 18.299C2.42333 17.9085 2 17.1884 2 16.4083Z" stroke="currentColor" stroke-width="2" stroke-linecap="round"/>
        <path d="M17 12V9L8 3" stroke="currentColor" stroke-width="2" stroke-linecap="round"/>
        <path d="M8 16.5L5.5 15" stroke="currentColor" stroke-width="2" stroke-linecap="round"/>
        <path d="M13 12V22" stroke="currentColor" stroke-width="2" stroke-linecap="round"/>
        <path d="M3 6L12 12L21 6" stroke="currentColor" stroke-width="2" stroke-linecap="round"/>
    </symbol>
    <symbol id="support_icon" viewBox="0 0 24 24" fill="none">
        <path d="M19 17H18C17.448 17 17 16.552 17 16V11C17 10.448 17.448 10 18 10H19C20.105 10 21 10.895 21 12V15C21 16.105 20.105 17 19 17Z" stroke="currentColor" stroke-width="2" stroke-linecap="round"/>
        <path d="M6 17H5C3.895 17 3 16.105 3 15V12C3 10.895 3.895 10 5 10H6C6.552 10 7 10.448 7 11V16C7 16.552 6.552 17 6 17Z" stroke="currentColor" stroke-width="2" stroke-linecap="round"/>
        <path d="M18.5 10V9.5C18.5 5.91 15.59 3 12 3C8.41 3 5.5 5.91 5.5 9.5V10" stroke="currentColor" stroke-width="2" stroke-linecap="round"/>
        <path d="M12.625 21.25H11.375C10.685 21.25 10.125 20.69 10.125 20C10.125 19.31 10.685 18.75 11.375 18.75H12.625C13.315 18.75 13.875 19.31 13.875 20C13.875 20.69 13.315 21.25 12.625 21.25Z" stroke="currentColor" stroke-width="2" stroke-linecap="round"/>
        <path d="M14 20H16.5758C17.9152 20 19 19.105 19 18V17" stroke="currentColor" stroke-width="2" stroke-linecap="round"/>
    </symbol>
    <symbol id="money_icon" viewBox="0 0 24 24" fill="none">
        <path d="M6 8H4.5C3.83696 8 3.20107 8.26339 2.73223 8.73223C2.26339 9.20107 2 9.83696 2 10.5V17.5C2 18.163 2.26339 18.7989 2.73223 19.2678C3.20107 19.7366 3.83696 20 4.5 20H15.5C16.163 20 16.7989 19.7366 17.2678 19.2678C17.7366 18.7989 18 18.163 18 17.5V16" stroke="currentColor" stroke-width="2" stroke-linecap="round"/>
        <path d="M14 12C15.1046 12 16 11.1046 16 10C16 8.89543 15.1046 8 14 8C12.8954 8 12 8.89543 12 10C12 11.1046 12.8954 12 14 12Z" stroke="currentColor" stroke-width="2" stroke-linecap="round"/>
        <path d="M9.28613 13H9.78613" stroke="currentColor" stroke-width="2" stroke-linecap="round"/>
        <path d="M19.5 4H8.5C7.11929 4 6 5.11929 6 6.5V13.5C6 14.8807 7.11929 16 8.5 16H19.5C20.8807 16 22 14.8807 22 13.5V6.5C22 5.11929 20.8807 4 19.5 4Z" stroke="currentColor" stroke-width="2" stroke-linecap="round"/>
        <path d="M18.7139 7H18.2139" stroke="currentColor" stroke-width="2" stroke-linecap="round"/>
    </symbol>
    <symbol id="user_icon" viewBox="0 0 18 18" fill="none">
        <path d="M12 5C12 3.34315 10.6569 2 9 2C7.34315 2 6 3.34315 6 5C6 6.65685 7.34315 8 9 8C10.6569 8 12 6.65685 12 5Z" stroke="currentColor" stroke-width="1.5" stroke-linecap="round"/>
        <path d="M5.5 11H12.5C13.4283 11 14.3185 11.3933 14.9749 12.0935C15.6313 12.7936 16 13.7432 16 14.7333V16.0667C16 16.3142 15.9078 16.5516 15.7437 16.7266C15.5796 16.9017 15.3571 17 15.125 17H2.875C2.64294 17 2.42038 16.9017 2.25628 16.7266C2.09219 16.5516 2 16.3142 2 16.0667V14.7333C2 13.7432 2.36875 12.7936 3.02513 12.0935C3.6815 11.3933 4.57174 11 5.5 11Z" stroke="currentColor" stroke-width="1.5" stroke-linecap="round"/>
    </symbol>
    <symbol id="incognito_icon" fill="currentColor" viewBox="0 0 16 16">
        <path fill-rule="evenodd" d="m4.736 1.968-.892 3.269-.014.058C2.113 5.568 1 6.006 1 6.5 1 7.328 4.134 8 8 8s7-.672 7-1.5c0-.494-1.113-.932-2.83-1.205l-.014-.058-.892-3.27c-.146-.533-.698-.849-1.239-.734C9.411 1.363 8.62 1.5 8 1.5s-1.411-.136-2.025-.267c-.541-.115-1.093.2-1.239.735m.015 3.867a.25.25 0 0 1 .274-.224c.9.092 1.91.143 2.975.143a30 30 0 0 0 2.975-.143.25.25 0 0 1 .05.498c-.918.093-1.944.145-3.025.145s-2.107-.052-3.025-.145a.25.25 0 0 1-.224-.274M3.5 10h2a.5.5 0 0 1 .5.5v1a1.5 1.5 0 0 1-3 0v-1a.5.5 0 0 1 .5-.5m-1.5.5q.001-.264.085-.5H2a.5.5 0 0 1 0-1h3.5a1.5 1.5 0 0 1 1.488 1.312 3.5 3.5 0 0 1 2.024 0A1.5 1.5 0 0 1 10.5 9H14a.5.5 0 0 1 0 1h-.085q.084.236.085.5v1a2.5 2.5 0 0 1-5 0v-.14l-.21-.07a2.5 2.5 0 0 0-1.58 0l-.21.07v.14a2.5 2.5 0 0 1-5 0zm8.5-.5h2a.5.5 0 0 1 .5.5v1a1.5 1.5 0 0 1-3 0v-1a.5.5 0 0 1 .5-.5"/>
    </symbol>
    <symbol id="bell_icon" fill="currentColor" viewBox="0 0 16 16">
        <path d="M8 16a2 2 0 0 0 2-2H6a2 2 0 0 0 2 2m.995-14.901a1 1 0 1 0-1.99 0A5 5 0 0 0 3 6c0 1.098-.5 6-2 7h14c-1.5-1-2-5.902-2-7 0-2.42-1.72-4.44-4.005-4.901"/>
    </symbol>
    <symbol id="psm_icon" fill="currentColor" viewBox="0 0 16 16">
        <path d="m1.854 14.854 13-13a.5.5 0 0 0-.708-.708l-13 13a.5.5 0 0 0 .708.708M4 1a.5.5 0 0 1 .5.5v2h2a.5.5 0 0 1 0 1h-2v2a.5.5 0 0 1-1 0v-2h-2a.5.5 0 0 1 0-1h2v-2A.5.5 0 0 1 4 1m5 11a.5.5 0 0 1 .5-.5h5a.5.5 0 0 1 0 1h-5A.5.5 0 0 1 9 12"/>
    </symbol>

    <symbol id="plus_glyph" fill="currentColor" viewBox="0 0 14 14">
        <path fill-rule="evenodd" clip-rule="evenodd" d="M7.75085 1C7.75085 0.585786 7.41507 0.25 7.00085 0.25C6.58664 0.25 6.25085 0.585786 6.25085 1V6.25075H1C0.585786 6.25075 0.25 6.58653 0.25 7.00075C0.25 7.41496 0.585786 7.75075 1 7.75075H6.25085V13.0015C6.25085 13.4157 6.58664 13.7515 7.00085 13.7515C7.41507 13.7515 7.75085 13.4157 7.75085 13.0015V7.75075H13.0015C13.4157 7.75075 13.7515 7.41496 13.7515 7.00075C13.7515 6.58653 13.4157 6.25075 13.0015 6.25075H7.75085V1Z" />
    </symbol>
    <symbol id="minus_glyph" fill="currentColor" viewBox="0 0 14 2">
        <path fill-rule="evenodd" clip-rule="evenodd" d="M0.25 1C0.25 0.585786 0.585786 0.25 1 0.25L13.0015 0.25C13.4157 0.25 13.7515 0.585787 13.7515 1C13.7515 1.41421 13.4157 1.75 13.0015 1.75L1 1.75C0.585786 1.75 0.25 1.41421 0.25 1Z" fill="#020203"/>
    </symbol>
    <symbol id="logo_icon" viewBox="0 0 36 36" fill="currentColor">
        <path d="M7.78694 10.9497L10.0278 12.09C10.4403 12.2733 10.8892 12.3559 11.3386 12.3312C11.788 12.3064 12.2255 12.175 12.6161 11.9474L14.7338 10.545C15.0981 10.2758 15.3947 9.92265 15.5992 9.5144C15.8037 9.10614 15.9103 8.65439 15.9102 8.19614L15.7758 5.62496C15.7267 5.17042 15.5734 4.73388 15.3282 4.35066C15.083 3.96743 14.7527 3.64817 14.364 3.41865L12.1231 2.24993C11.7114 2.06442 11.2626 1.98016 10.8129 2.00393C10.3633 2.02771 9.92542 2.15883 9.53484 2.38676L7.41725 3.78922C7.05349 4.05905 6.75736 4.41234 6.55299 4.82048C6.34857 5.22857 6.24156 5.68003 6.24072 6.13806L6.37518 8.70923C6.4187 9.16999 6.56946 9.61354 6.81495 10.0031C7.06044 10.3928 7.39366 10.7173 7.78694 10.9497Z"/>
        <path d="M21.3051 14.2793L19.0642 13.1106C18.6527 12.9273 18.2048 12.8448 17.7562 12.8695C17.3077 12.8943 16.8712 13.0257 16.4816 13.2531L14.3415 14.6556C13.9791 14.9267 13.6839 15.2803 13.4797 15.6881C13.2754 16.0959 13.1676 16.5467 13.165 17.0044L13.2995 19.5756C13.3486 20.0302 13.5018 20.4668 13.7471 20.85C13.9923 21.2332 14.3226 21.5525 14.7113 21.7819L16.9522 22.9221C17.3629 23.1076 17.8108 23.1919 18.2596 23.1681C18.7083 23.1444 19.1452 23.0132 19.5348 22.7853L21.658 21.3829C22.0206 21.1106 22.3157 20.756 22.5199 20.3472C22.7242 19.9385 22.8319 19.4869 22.8345 19.0283L22.7 16.4628C22.6487 16.0141 22.496 15.5835 22.2541 15.2047C22.012 14.826 21.6873 14.5093 21.3051 14.2793Z"/>
        <path d="M28.2185 25.1236L25.9776 23.9834C25.5659 23.7978 25.1171 23.7136 24.6674 23.7373C24.2178 23.7611 23.7799 23.8922 23.3893 24.1202L21.2717 25.5227C20.9086 25.7931 20.613 26.1465 20.4087 26.5545C20.2043 26.9625 20.097 27.4136 20.0952 27.8715L20.2297 30.4427C20.2833 30.8899 20.4376 31.3186 20.6805 31.6953C20.9234 32.072 21.2484 32.3866 21.6303 32.6148L23.8712 33.755C24.2836 33.9383 24.7325 34.0209 25.1819 33.9962C25.6313 33.9714 26.0688 33.84 26.4594 33.6125L28.5826 32.21C28.9454 31.9396 29.2404 31.586 29.4438 31.1779C29.6472 30.7698 29.7533 30.3187 29.7535 29.8612L29.6358 27.3356C29.5875 26.8794 29.4339 26.4412 29.1876 26.0568C28.9413 25.6724 28.6092 25.3526 28.2185 25.1236Z"/>
        <path d="M11.7087 18.7374L11.6022 16.7363C11.6048 16.2786 11.7125 15.8278 11.9169 15.42C12.1211 15.0121 12.4162 14.6585 12.7787 14.3875L16.9076 11.6566C17.2971 11.4292 17.7337 11.2978 18.1822 11.273C18.6307 11.2483 19.0787 11.3309 19.4902 11.5141L21.2493 12.4263C21.661 12.6118 22.1098 12.6961 22.5594 12.6724C23.0091 12.6486 23.4469 12.5174 23.8375 12.2895L25.9552 10.8813C26.3186 10.6112 26.6144 10.2578 26.8188 9.84976C27.0232 9.44173 27.1304 8.99049 27.1316 8.53247L26.9972 5.96699C26.949 5.51142 26.7961 5.07375 26.5508 4.6895C26.3055 4.30519 25.9748 3.98507 25.5854 3.75498L23.3445 2.58626C22.9321 2.40297 22.4832 2.32037 22.0338 2.34511C21.5844 2.36985 21.1469 2.50126 20.7563 2.72879L18.5938 4.10845C18.2311 4.3789 17.9361 4.73248 17.7327 5.14057C17.5292 5.54865 17.4231 5.99972 17.423 6.45728L17.5238 8.45835C17.5236 8.91598 17.4175 9.36705 17.2141 9.77513C17.0106 10.1832 16.7156 10.5368 16.3529 10.8072L12.2241 13.538C11.8335 13.7659 11.3957 13.8971 10.946 13.9209C10.4964 13.9447 10.0476 13.8603 9.63585 13.6748L7.88235 12.7684C7.47064 12.5828 7.02185 12.4986 6.57215 12.5224C6.12252 12.5461 5.6847 12.6773 5.29411 12.9052L3.17647 14.3076C2.81272 14.5775 2.51664 14.9308 2.31221 15.3389C2.10779 15.747 2.00084 16.1985 2 16.6565L2.13445 19.2277C2.18218 19.6834 2.33496 20.1212 2.58022 20.5056C2.82554 20.89 3.15647 21.21 3.54622 21.4397L5.78711 22.5799C6.19955 22.7632 6.6484 22.8458 7.09781 22.8211C7.54722 22.7963 7.98476 22.6649 8.37534 22.4374L10.493 21.0349C10.8569 20.7742 11.1561 20.4309 11.3672 20.0321C11.5781 19.6333 11.6951 19.1901 11.7087 18.7374Z"/>
        <path d="M33.8879 16.8109C33.8379 16.3558 33.6843 15.9189 33.4392 15.5348C33.1941 15.1508 32.8643 14.8303 32.4761 14.5989L30.2352 13.4587C29.8227 13.2758 29.3738 13.1934 28.9245 13.2182C28.4751 13.2429 28.0377 13.3741 27.647 13.6012L25.5293 15.0037C25.1662 15.2741 24.8706 15.6275 24.6662 16.0355C24.4619 16.4435 24.3545 16.8946 24.3529 17.3525L24.4593 19.3593C24.4576 19.8171 24.3502 20.2683 24.1459 20.6762C23.9415 21.0842 23.6459 21.4377 23.2828 21.7081L19.1595 24.4332C18.7689 24.6608 18.3315 24.7922 17.882 24.8169C17.4326 24.8417 16.9838 24.759 16.5713 24.5758L14.8122 23.6636C14.4007 23.4803 13.9527 23.3977 13.5042 23.4224C13.0557 23.4472 12.6192 23.5786 12.2296 23.8061L10.0895 25.2029C9.72709 25.474 9.43197 25.8275 9.22765 26.2353C9.02339 26.6431 8.91566 27.0939 8.91309 27.5517L9.04748 30.1228C9.09656 30.5774 9.24984 31.014 9.49505 31.3972C9.74031 31.7804 10.0706 32.0997 10.4593 32.3292L12.7002 33.4979C13.1109 33.6834 13.5588 33.7676 14.0075 33.7439C14.4563 33.7201 14.8932 33.5889 15.2828 33.361L17.406 31.9586C17.7682 31.6872 18.0631 31.3336 18.2673 30.9258C18.4716 30.518 18.5795 30.0674 18.5825 29.6098L18.4761 27.603C18.4773 27.145 18.5845 26.6938 18.7889 26.2857C18.9932 25.8777 19.2891 25.5243 19.6525 25.2541L23.7758 22.5234C24.1664 22.2955 24.6042 22.1643 25.0539 22.1405C25.5035 22.1167 25.9523 22.201 26.364 22.3865L28.1175 23.293C28.5292 23.4785 28.9781 23.5628 29.4277 23.539C29.8773 23.5152 30.3151 23.3841 30.7057 23.1562L32.829 21.7537C33.1914 21.4829 33.4862 21.1293 33.6895 20.7213C33.893 20.3133 33.9992 19.8623 33.9998 19.4049L33.8879 16.8109Z"/>
    </symbol>
    <symbol id="cart_icon" viewBox="0 0 24 24" fill="none">
        <path d="M4.96905 6.625L4.30205 3.625H2.37305" stroke="currentColor" stroke-width="2" stroke-linecap="round"/>
        <path d="M6.73124 14.835L4.96924 6.625H19.6272C20.2642 6.625 20.7382 7.212 20.6052 7.835L19.1032 14.835C19.0042 15.296 18.5972 15.625 18.1252 15.625H7.70824C7.23724 15.625 6.83024 15.296 6.73124 14.835Z" stroke="currentColor" stroke-width="2" stroke-linecap="round"/>
        <circle cx="9.5" cy="19.5" r="1.5" fill="currentColor"/>
        <circle cx="16.5" cy="19.5" r="1.5" fill="currentColor"/>
    </symbol>
</svg>
